/* XPM */
static char *back5c0a5501470ae354032d0523d5b28kefZd2l4tgUYoXz[] = {
/* columns rows colors chars-per-pixel */
"40 86 244 2 ",
"   c #000000",
".  c #161616",
"X  c #1D1D1D",
"o  c #191916",
"O  c #221E1D",
"+  c #262C14",
"@  c #23221D",
"#  c #2A2D1B",
"$  c #282B19",
"%  c #2D321B",
"&  c #2C3215",
"*  c #333B15",
"=  c #343A1B",
"-  c #36281E",
";  c #231E25",
":  c #242424",
">  c #2B2522",
",  c #2C2B2B",
"<  c #292628",
"1  c #352B28",
"2  c #33332D",
"3  c #373926",
"4  c #322B36",
"5  c #343434",
"6  c #3B3B35",
"7  c #3B3B3B",
"8  c #393437",
"9  c #2E2C2D",
"0  c #1F1E1E",
"q  c #44362C",
"w  c #443C36",
"e  c #573C33",
"r  c #513428",
"t  c #573D29",
"y  c #3C4419",
"u  c #3D4B0F",
"i  c #3E4429",
"p  c #3E4036",
"a  c #444D15",
"s  c #4A5618",
"d  c #4F5A15",
"f  c #586818",
"g  c #5F7017",
"h  c #6C6D1B",
"j  c #484729",
"k  c #554A2A",
"l  c #4B5426",
"z  c #555928",
"x  c #42413B",
"c  c #494735",
"v  c #574836",
"b  c #4E5431",
"n  c #585738",
"m  c #68592D",
"M  c #66483B",
"N  c #665A36",
"B  c #724F34",
"V  c #576326",
"C  c #5D6434",
"Z  c #64653A",
"A  c #786738",
"S  c #68733A",
"D  c #706C29",
"F  c #3D3542",
"G  c #3B2D43",
"H  c #443947",
"J  c #4D3C51",
"K  c #444444",
"L  c #4C4C4C",
"P  c #4B4645",
"I  c #554B49",
"U  c #5A5449",
"Y  c #564A57",
"T  c #545454",
"R  c #5B5B5B",
"E  c #5B5757",
"W  c #4E464D",
"Q  c #65574A",
"!  c #785448",
"~  c #655957",
"^  c #72524E",
"/  c #5F6252",
"(  c #6A6649",
")  c #747948",
"_  c #676658",
"`  c #776659",
"'  c #717551",
"]  c #5B4966",
"[  c #5B526B",
"{  c #665569",
"}  c #6B596D",
"|  c #646464",
" . c #6C6C6B",
".. c #6A6765",
"X. c #756A68",
"o. c #72746A",
"O. c #776676",
"+. c #747474",
"@. c #7B7B7B",
"#. c #787878",
"$. c #6D6C6E",
"%. c #836B35",
"&. c #88743B",
"*. c #947C37",
"=. c #847328",
"-. c #845F3F",
";. c #865B4A",
":. c #8A5E51",
">. c #896659",
",. c #976957",
"<. c #927050",
"1. c #A6755C",
"2. c #A16D5C",
"3. c #866B65",
"4. c #867269",
"5. c #98756A",
"6. c #877A77",
"7. c #9A7674",
"8. c #946E6E",
"9. c #A87766",
"0. c #B47C6A",
"q. c #AA7C73",
"w. c #805B64",
"e. c #798D14",
"r. c #798338",
"t. c #7A864C",
"y. c #7E8076",
"u. c #93A616",
"i. c #8C8E31",
"p. c #92A72A",
"a. c #A9AA2C",
"s. c #A3A325",
"d. c #8E9056",
"f. c #A78A4A",
"g. c #999D6A",
"h. c #84837C",
"j. c #939A79",
"k. c #8D8F6E",
"l. c #B9846D",
"z. c #A98578",
"x. c #BA8674",
"c. c #B18869",
"v. c #99A46A",
"b. c #9AA37C",
"n. c #9CA675",
"m. c #A2B06D",
"M. c #A7BF4E",
"N. c #C38B76",
"B. c #C89479",
"V. c #CC9875",
"C. c #D8AB78",
"Z. c #ABC646",
"A. c #545692",
"S. c #7A7589",
"D. c #6C75B0",
"F. c #5C68AC",
"G. c #857886",
"H. c #8A7C8F",
"J. c #7D829C",
"K. c #7F8AC0",
"L. c #838383",
"P. c #8B8B8B",
"I. c #8A8886",
"U. c #948687",
"Y. c #96988A",
"T. c #949494",
"R. c #9B9B9C",
"E. c #989996",
"W. c #8F8C91",
"Q. c #A79B96",
"!. c #AD9089",
"~. c #9DA387",
"^. c #9EA293",
"/. c #A2A59B",
"(. c #A2A796",
"). c #AEA697",
"_. c #9E9FA1",
"`. c #8F91B6",
"'. c #9EA1A2",
"]. c #A3A4A4",
"[. c #A5A7A9",
"{. c #A6A9AB",
"}. c #AAABAC",
"|. c #A9AAA5",
" X c #ACAEB1",
".X c #A8ABB3",
"XX c #AEB1B3",
"oX c #AFB4B8",
"OX c #B2B4B5",
"+X c #B3B6B9",
"@X c #B6B9BD",
"#X c #BABBBC",
"$X c #B7B8B7",
"%X c #B3B0AA",
"&X c #A09FAB",
"*X c #D79B86",
"=X c #CD9987",
"-X c #DAA589",
";X c #DBA893",
":X c #DDB396",
">X c #E9B798",
",X c #E9B091",
"<X c #CDB8AC",
"1X c #ECBDA3",
"2X c #E39D8B",
"3X c #F4C49E",
"4X c #D9C5B6",
"5X c #F5C7A7",
"6X c #F4C9B1",
"7X c #FBD7B7",
"8X c #F1CFB2",
"9X c #FEE0BF",
"0X c #BABEC2",
"qX c #B5B8C4",
"wX c #A9ABC4",
"eX c #959BC5",
"rX c #C1BBC4",
"tX c #BDC1C5",
"yX c #BFC4C9",
"uX c #C3C3C4",
"iX c #C1C6CB",
"pX c #C4C9CD",
"aX c #CBCCCD",
"sX c #CDC5C9",
"dX c #C6CCD2",
"fX c #C9CED3",
"gX c #CBD1D5",
"hX c #CCD4DA",
"jX c #D3D4D5",
"kX c #D1D6DB",
"lX c #D4DADE",
"zX c #DADBDD",
"xX c #D9CDC7",
"cX c #E8D7C7",
"vX c #F5DCC3",
"bX c #FCE4C8",
"nX c #FDECD5",
"mX c #FCEED9",
"MX c #D6DBE0",
"NX c #DADEE1",
"BX c #DEE1E4",
"VX c #E2E3E5",
"CX c #E7E9EA",
"ZX c #FEF9E9",
/* pixels */
"                                                                                ",
"                                                                                ",
"                                  g.v.Z.  M.v.v.                                ",
"                                ~.T.Y.m.M.m.Y.T.b.                              ",
"                      n.b.b.b.~./.].].~.b.^.].]./.~.b.b.j.v.                    ",
"                    n.R.].{.{. X+X#X+X'.T.{.@X#X+X X{.[.'.E.n.                  ",
"                  b./.}.0XiXyXiXpXpXyX{.R.XXyXpXiXiXiXiX@X{.^.n.                ",
"                n./.XXyXdXdXyX0X0X0X$X}.]. X@X0X0X0XiXdXdX0X}.^.n.              ",
"              b./.OXiXgXhXdX0X+X+XOX}.].].{.}.OX+X+XtXfXhXgXuX%X^.n.            ",
"            n./.$XjXNXBXlXgXpXyXyX@X}.R.R.]. X0XyXyXpXgXMXBXzXaXOX(.n.          ",
"          n.R.OXaXVXCXVXMXhXgXgXfXiXOXR.T.].+XpXgXgXgXhXMXVXCXVXpX{.Y.v.        ",
"          n.].yXlXCXVXMXhXhXhXhXgXfXyX[.R. XiXfXgXhXhXhXkXNXVXCXkX@XR.v.        ",
"          ~.}.dXMXBXMXhXhXhXhXhXhXgXdX@X X0XfXgXhXhXhXhXhXhXNXBXlXyX[.n.        ",
"        b./.+XdXkXlXkXhXhXhXhXhXhXhXgXdXiXdXgXhXhXhXhXgXgXgXhXkXhXiXXX^.n.      ",
"      v.E. X0XiXgXlXlXhXhXhXhXhXhXhXhXgXgXhXgXhXhXhXhXgXdXiXdXfXpXyX#X}.Y.      ",
"      g.R.qXtX#XaXBXlXhXhXhXhXhXhXhXhXhXhXhXhXgXgXgXgXgXyX@XiXdX0X@XyX+XE.v.    ",
"      d.E.0XyX+XaXVXjXpXkXMXkXhXhXhXhXhXhXhXhXgXdXiXiXdXyX+XpXgX0X+XyX+XP.d.    ",
"      t.I.oX@XOXuXzXuX#XjXBXkXgXhXkXhXgXgXgXgXgXiX+X#XpXyX+XaXkXuX+XtX}.h.t.    ",
"      ) #.].}.].$XaXOX}.jXzXaXpXNXVXNXfXyXdXgXgXyX{.OXgXpX$XpXgX#XXXXXR.o.)     ",
"      S  .T.R.T.}.0X[.].pXjX0XuXzXCXBXaX$X0XpXpX+XR.{.gXpXOX@XyXOX{.|.P._ S     ",
"      S ..T.R.T._.}.R.R.0XpX$X#XgXNXkXuXXXOX+X+X].I.E.uX#X].[. X'.R.R.I._ S     ",
"      S ..P.T.I.T.].T.W.XX@X XXXdXhXdX+X].].{.{.T.@.P.XX{.W.E._.T.I.T.I._ S     ",
"      S _ @.y.#.I.R.I.@.R.[.R.{.yXgXiX'.I.T.].{.T.#.L.'.T.@.P.R.L.#.L.#._ S     ",
"      i.) o. . .#.I.$. .P.R.P.T.+XyX@XT.#.P.].{.T.#.@.T.L...#.I.+... .o.t.      ",
"        p.) / R | ..T R L.T.@.L.]. X{.I.+.P.].].T.#.@.T.#.T R ..| R / t.p.      ",
"          i.Z L L T K L  .@.+.+.T.R.T.S.+.I.E.R.P.+.+.@...P P T L n S p.        ",
"            e.l 6 K 7 K R | |  .L.I.L.+...#.I.I.@...| | T K 7 x i d u.          ",
"                s 2 5 7 P T T R  .+.+.| R ..+.+...R T T P 6 5 3 d               ",
"                  % , 5 K K 7 K R | R T L E R | T K 7 K 7 5 < =                 ",
"                  + X , 5 5 , 5 P L P K K K L L K 5 , 5 5 < X *                 ",
"                  + X : , , : < 6 K 7 5 5 6 7 K 8 < : , , : X *                 ",
"                  # < 4 < ; X : 5 6 5 , , 9 6 6 5 ; X : 9 4 ; *                 ",
"                d 1 4 G 9 0 X X , , , , : , , , , X X : 4 F 4 =                 ",
"                y 5 7 H 8 , X X X 0 : , , < : 0 X X : , 7 H 7 2 y               ",
"            f 3 2 6 K K 7 5 < : : : < , 5 , : : : : , 5 7 K K 6 , =             ",
"          d 3 2 6 K K K 7 6 5 5 5 5 5 5 5 5 5 5 5 5 5 6 F K K K 6 2 y f         ",
"          l 2 6 K K K K K 7 6 6 6 6 6 6 6 6 6 6 6 6 7 7 K K P K K 6 2 s         ",
"          b 6 K K K P K K K 7 6 6 6 6 6 6 6 6 6 6 7 7 K K K P K K K 6 V         ",
"        V b K K K P K K K K K K F 7 F 7 7 7 F F x K K K P P P P K K x b f       ",
"      d 3 7 K K P K K K K K K K K K K 7 7 x K K K K K K K K K K K K K 6 3       ",
"      l 5 x K P K K K x K K P P K K K x 7 K K P K P P K K K K K K K K 7 6 z     ",
"      z 6 K K K K K 7 7 K K P P K P K x 7 K K P K K P K K 7 7 K K K K K 6 V     ",
"    s i 7 K K K K 7 7 7 K K P P K P K F 7 K K P K K P K x 6 6 7 K K K K 6 i d   ",
"  a # 5 7 K K K 6 5 5 7 K K P P P P K F 7 K K P K K K K K 6 5 5 7 K K K 6 , %   ",
"  a > 5 7 K K K 5 < , 6 K K K P P P K x 7 K K K P K K K 7 5 , , 6 K K K 6 , %   ",
"  V 5 5 6 7 K 7 , : , 6 7 K K K P P K x 7 K K P P K K K 7 5 < : 5 7 K K 6 5 6 C ",
"' _ R P H 7 6 5 , X , 5 6 7 K K K K K x 7 x K K P K K 7 6 5 < X , 8 6 7 K L R _ ",
"o.L.I.+.R K 5 , 0 X , 5 6 7 K K K K x 7 7 7 K K K K K 7 6 5 < X : , 5 P | @.P.@.",
"k.E.{.R.#.T 6 , X X , 5 6 7 K K K K 7 6 6 6 7 K K K K 7 6 5 < X : , 7 R L.R.|.Y.",
"  g.U.I.L.#...T 5 : , 5 6 7 K K K x 6 6 6 6 7 K K K K 7 6 5 < < 7 R  .#.h.I.j.g.",
"  f.>.4.6.I.h.X.K < , 5 6 7 K K K K 6 6 6 6 7 K K K K 7 6 5 < , I +.I.U.6.3.<.  ",
"  f.1.q.z.5.` Q w : , 5 6 7 K K K K 6 6 6 6 7 K K K K 7 6 5 < : w ^ 3.5.z.q.1.  ",
"  f.1.N.0.,.B e 1 O , 5 6 7 K K K F 7 6 6 6 6 x K K x 6 6 5 < O q e ! ,.x.l.1.  ",
"  i.,.9.9.,.! t 1 O , 5 6 6 7 7 7 7 6 6 6 6 6 7 7 7 6 6 6 5 < O q e ;.2.9.1.<.  ",
"    *.<.:.:.%.D a @ : , 5 6 6 6 6 6 6 6 6 6 6 6 6 6 6 6 5 , : $ s D -.:.:.<.i.  ",
"    s.=.B B =.u.g + X < , 5 5 8 8 6 6 6 6 6 6 6 6 5 5 5 , : X & e.u.=.B B =.    ",
"        D D     g + X : < , , 9 5 8 6 6 6 6 6 8 5 , , , , : X *       D D       ",
"                  % , , < 0 0 < 5 8 5 5 5 5 5 5 5 < 0 : , , < =                 ",
"                  = , 5 , < < , 5 5 , < < , , 5 5 , < < , 5 , y                 ",
"                  = , 5 5 5 5 5 5 , : X X X < 2 5 5 5 5 5 5 , y                 ",
"                  3 , 8 6 6 6 6 8 5 , X X : , 5 8 6 6 6 6 5 , y                 ",
"                  3 9 8 6 6 6 6 8 8 5 < X , 5 8 8 6 6 6 6 5 , i                 ",
"                  i 5 8 6 6 6 6 6 6 5 < X , 5 6 6 6 6 6 6 8 5 j                 ",
"                  c 8 6 6 6 6 6 6 6 5 < X , 5 6 6 6 6 6 6 8 8 b                 ",
"                  c 6 6 6 6 6 6 6 6 5 < X , 5 6 6 6 6 6 6 6 6 b                 ",
"                  c 6 6 7 7 7 7 6 6 5 < X , 5 6 6 7 7 7 6 6 6 b                 ",
"                  c 6 7 x K K x 6 6 5 < 0 , 5 6 7 K K K 7 6 6 b                 ",
"                  c 7 7 x K K K 6 6 5 < 0 , 5 6 7 K K K K 7 6 b                 ",
"                  c 7 K 7 7 K K 7 6 5 < X , 5 6 7 K K 7 7 K 7 b                 ",
"                  i 6 7 K K K K 7 6 5 < 0 , 5 6 7 K K K 7 7 5 j                 ",
"                  3 5 7 K K K K 7 6 5 < 0 , 5 6 7 K K K K 6 , y                 ",
"                  % 5 7 7 K K K 7 6 5 < 0 , 5 6 7 K K K K 7 , y                 ",
"                  % 5 7 7 7 K K 6 6 5 < 0 , 5 6 7 K K 7 7 7 , =                 ",
"                  % , 7 K K K K 6 6 5 < 0 , 8 6 7 K K K K 6 , *                 ",
"                  % 5 K K K K K 7 7 7 , : 5 7 7 7 K K K K F , *                 ",
"                  = 6 L L P K K F K L 5 , 7 L K 7 K K P L L 5 =                 ",
"                  % 6 L T T T L P L L F 4 H L L P L T T T P 5 *                 ",
"                  % , K L T R T T P K F F F K L T T R T L 7 < *                 ",
"                  + : , 6 K K K K 5 9 G H 4 5 6 K K K K 5 , X *                 ",
"                  + X X : < < : : X : 8 H 9 X X : : < < : X X *                 ",
"                  + : < , < < : X . @ l D y o . X < < < , < X *                 ",
"                  a 2 8 8 8 5 2 = * u       * * = 5 8 8 8 8 3 s                 ",
"                  e.C H H H H n                   v H H H P D e.                ",
"                    i.( U U U                       U U U Z p.                  ",
"                                                                                ",
"                                                                                "
};