/* XPM */
static char *back6836bf3845e89f7fd6dcd63a9e6eUrl9OcZNczQKnmUM[] = {
/* columns rows colors chars-per-pixel */
"40 86 241 2 ",
"   c #000000",
".  c #161616",
"X  c #1A1B16",
"o  c #1C1C1C",
"O  c #181716",
"+  c #241E1D",
"@  c #1F2117",
"#  c #23241D",
"$  c #262918",
"%  c #2D3317",
"&  c #333B14",
"*  c #343B1B",
"=  c #333819",
"-  c #302E1B",
";  c #242423",
":  c #2A2B24",
">  c #2B2B2B",
",  c #2B2623",
"<  c #332D2C",
"1  c #352A25",
"2  c #2F3125",
"3  c #33342D",
"4  c #373927",
"5  c #343434",
"6  c #3B3B34",
"7  c #3B3B3B",
"8  c #393638",
"9  c #302D32",
"0  c #48372C",
"q  c #443C35",
"w  c #553C34",
"e  c #4D3228",
"r  c #633C35",
"t  c #3A4313",
"y  c #3E4912",
"u  c #3A421B",
"i  c #3A4417",
"p  c #3E480F",
"a  c #3D4227",
"s  c #3E4136",
"d  c #414E14",
"f  c #434C1A",
"g  c #495517",
"h  c #495213",
"j  c #566519",
"k  c #56680F",
"l  c #72671E",
"z  c #46472A",
"x  c #54482C",
"c  c #4C5625",
"v  c #545929",
"b  c #494738",
"n  c #544D3A",
"m  c #574737",
"M  c #575539",
"N  c #4B5134",
"B  c #67473A",
"V  c #665A36",
"C  c #6D5030",
"Z  c #5E6937",
"A  c #576425",
"S  c #666839",
"D  c #796837",
"F  c #667137",
"G  c #6F6F2D",
"H  c #3F3B41",
"J  c #453C49",
"K  c #4A3F50",
"L  c #444444",
"P  c #4C4C4C",
"I  c #4A4547",
"U  c #564B46",
"Y  c #595447",
"T  c #4C4052",
"R  c #544659",
"E  c #535353",
"W  c #5B5B5B",
"Q  c #5B5755",
"!  c #684B45",
"~  c #65574A",
"^  c #795548",
"/  c #665855",
"(  c #785C53",
")  c #744F41",
"_  c #5D6349",
"`  c #676846",
"'  c #78784C",
"]  c #666657",
"[  c #766656",
"{  c #72714E",
"}  c #5A4D67",
"|  c #645669",
" . c #695771",
".. c #636363",
"X. c #6B6B6B",
"o. c #6A6765",
"O. c #766966",
"+. c #756777",
"@. c #747474",
"#. c #7C7C7C",
"$. c #7B7677",
"%. c #72706E",
"&. c #3F4040",
"*. c #887339",
"=. c #8D7635",
"-. c #825B3D",
";. c #845948",
":. c #895E53",
">. c #896758",
",. c #966958",
"<. c #8D704E",
"1. c #A4725A",
"2. c #866966",
"3. c #956D68",
"4. c #89736B",
"5. c #9A7668",
"6. c #877977",
"7. c #947573",
"8. c #AA7866",
"9. c #B07D6C",
"0. c #7C8A26",
"q. c #7B8450",
"w. c #7C8169",
"e. c #8F8933",
"r. c #99A333",
"t. c #A8AA26",
"y. c #A1972F",
"u. c #8F894C",
"i. c #AA8E4E",
"p. c #84817B",
"a. c #8C9279",
"s. c #959C79",
"d. c #918B70",
"f. c #B9856B",
"g. c #B98775",
"h. c #AB8772",
"j. c #9AA56B",
"k. c #9BA676",
"l. c #A1AF6A",
"z. c #A3B65E",
"x. c #C68A76",
"c. c #C99579",
"v. c #D1977D",
"b. c #D7AF6A",
"n. c #D4AB66",
"m. c #52548F",
"M. c #726F8F",
"N. c #6B76B3",
"B. c #5C5E95",
"V. c #847987",
"C. c #7D8298",
"Z. c #838383",
"A. c #8B8B8C",
"S. c #8A8988",
"D. c #948A89",
"F. c #969B87",
"G. c #939494",
"H. c #9B9B9C",
"J. c #989797",
"K. c #908C94",
"L. c #A89897",
"P. c #AC8D87",
"I. c #9CA287",
"U. c #9EA197",
"Y. c #A3A599",
"T. c #A9AA8D",
"R. c #9C9EA1",
"E. c #9A9CA6",
"W. c #8B91B8",
"Q. c #9EA1A3",
"!. c #9EA2BD",
"~. c #A3A4A4",
"^. c #A4A6A9",
"/. c #A6A9AB",
"(. c #AAABAC",
"). c #A8A9A5",
"_. c #B6A9A5",
"`. c #ABAEB1",
"'. c #A8A7B1",
"]. c #AEB1B4",
"[. c #AFB4B9",
"{. c #B2B4B5",
"}. c #B2B6B9",
"|. c #B6B9BC",
" X c #BABBBC",
".X c #BAB3B4",
"XX c #B0B1AF",
"oX c #AD9EA5",
"OX c #CA9685",
"+X c #D69C84",
"@X c #C49085",
"#X c #E29C8A",
"$X c #DAA588",
"%X c #D2AB93",
"&X c #E4A98B",
"*X c #E6AC93",
"=X c #EAB699",
"-X c #EBB693",
";X c #CCB7AC",
":X c #EEBBA2",
">X c #F1C29B",
",X c #D8C4B8",
"<X c #F6C9A8",
"1X c #FCD3AE",
"2X c #FBDBBB",
"3X c #F7D6BA",
"4X c #EDCBB1",
"5X c #FEE0BF",
"6X c #BABEC2",
"7X c #B8B9C5",
"8X c #A5A9C6",
"9X c #969DC4",
"0X c #C4BCC5",
"qX c #BCC1C5",
"wX c #BEC3C9",
"eX c #C2C4C5",
"rX c #C2C6CB",
"tX c #C4C9CE",
"yX c #CBC9CA",
"uX c #C6CCD2",
"iX c #CACED3",
"pX c #CBD1D5",
"aX c #CCD4DA",
"sX c #D2D3D4",
"dX c #D2D6DB",
"fX c #D4D9DD",
"gX c #DBDBDC",
"hX c #DBCFC9",
"jX c #ECDAC7",
"kX c #F7DDC3",
"lX c #FCE5C9",
"zX c #FCECD4",
"xX c #FFF2DC",
"cX c #DADEE2",
"vX c #D6DBE0",
"bX c #DEE1E4",
"nX c #E1E3E5",
"mX c #EAEBEC",
"MX c #E5E7E9",
"NX c #FDF7E6",
"BX c #FFFEF1",
/* pixels */
"                                                                                ",
"                                                                                ",
"                                                                                ",
"                                  s.s.      j.s.j.                              ",
"                                k.G.J.I.z.l.F.J.F.l.                            ",
"                      j.F.F.F.I.Y.)./.U.F.F.~./.~.U.I.F.F.s.                    ",
"                    k.U.~.`.].].|.6X6X`.J.R.}.qX6X|.].].(.U.I.                  ",
"                  k.U.(. XrXtXrXrXtXrX}.R.~.6XtXrXrXrXuXwX}.~.F.                ",
"                k.Y.(.6XuXiXrX X|.|.|.].~./.{.|.|.|.6XuXiXtX|.~.I.              ",
"              k.U.XXeXpXaXpXwX|.{.{.(./.~.~./.].{.}. XtXaXdXiX X).I.            ",
"            k.Y.XXyXgXbXcXaXuXtXrXqX{.~.J.H./.|.wXrXtXiXfXbXnXgXeX).I.          ",
"            F./.eXcXmXMXcXaXaXaXaXuX6X/.J.H.].wXiXaXaXaXfXbXMXmXdX|.H.s.        ",
"          j.J.}.pXnXMXcXdXaXaXaXaXaXuX}.R.^.qXiXaXaXaXaXaXfXbXMXcXtX/.I.        ",
"          k.Y.qXaXcXcXdXaXaXaXaXaXaXaXwX].}.uXaXaXaXaXaXaXaXfXbXcXiX}.U.l.      ",
"        k.U.(.wXpXfXfXaXaXaXaXaXaXaXaXpXuXuXaXaXaXaXaXaXaXaXaXaXaXuX6X).F.      ",
"        F./.|.6XtXfXvXaXaXaXaXaXaXaXaXaXaXaXaXaXaXaXaXaXiXrXrXiXuXwXqX}.H.k.    ",
"        F.].wX|.eXgXbXdXaXaXaXaXaXaXaXaXaXaXaXaXaXpXpXaXtX|.6XuXrX|.6XqXQ.s.    ",
"        a.`.wX|. XgXgXtXiXcXvXaXaXaXaXaXaXaXaXaXpXrXwXuXrX}. XsXyX}.6XqXJ.d.    ",
"        w.Q. X].|.sXpX|.eXbXfXpXaXfXfXaXiXiXaXaXiX|.{.rXtX|.qXdXyX|.|.}.A.q.    ",
"        ] K./.Q./.rXqX/. XgXsXrXdXnXnXdXeXwXiXaXuX]./.rXsX X XiXrX{.].^.#.{     ",
"        ] Z.H.J.H.}.].H.{.sXrX XsXnXnXsX X|.wXtX6XQ.J.qXpX|.].6X|./.~.J.@.`     ",
"        ] Z.J.G.G./.~.J.(.tX6X|.tXfXfXtX{.(.{.{.(.A.S.].wX~.H./.~.J.H.J.%.`     ",
"        ` $.G.S.S.H.J.A.H.}.].(.qXaXaX6X~.H.~./.~.Z.#.Q.`.G.A.H.J.Z.A.A.X.`     ",
"        ` %.p.$.#.G.A.$.S.~.H.H.|.uXiX[.A.S.~./.~.Z.$.G.H.C.#.J.A.$.#.p.o.F     ",
"          { o.o.X.#.$.o.$.J.A.S./.6X6X^.M.Z.H./.~.Z.$.A.A.X.o.#.$.o.o.X.q.      ",
"            ` W ..o.W E X.A.Z.$.G././.J.$.#.J.~.H.Z.$.S.Z.W E ..o.W Q `         ",
"              M I P P L W $.$.@.Z.J.J.S.@.$.K.J.G.#.X.$.@.E L P P I Z           ",
"                a s 7 7 P W ..o.$.Z.Z.$.o.X.#.Z.Z.X.....W L 7 s s z             ",
"                  a 3 8 L P P E o.@.@.o.W W X.@.X.W P P P 7 5 3 f               ",
"                  i ; > 7 L 7 7 E W W Q P P W W W L 7 7 L 5 > $ h               ",
"                  t o ; > 5 > > 7 P P L 7 L L P P 5 > 5 5 > o $ d               ",
"                  % O o ; > ; ; 5 7 7 5 5 5 7 7 7 > o ; > o o X y               ",
"                & $ O o o o o o > 7 7 5 ; > 5 7 5 ; o o o o o o % d             ",
"              p X O o ; ; ; o o ; > > > ; ; > > > ; o o ; ; ; ; : 2 g           ",
"              p X O ; > 5 > ; o o o ; ; > > ; + o o o ; 5 7 7 7 7 7 4 g         ",
"              % O O ; 5 7 5 > ; ; ; ; > 5 5 > ; ; ; ; > 5 7 L L L L 5 a         ",
"            % @ O o ; 5 7 7 5 5 5 5 5 5 5 5 5 5 5 5 > ; ; 7 L L L L 7 N         ",
"          d @ O o ; > 5 7 7 7 7 7 7 7 7 7 7 7 7 5 > ; o ; 7 L L I L L b A       ",
"          d $ O o > 5 7 7 L L 7 7 7 7 7 7 7 7 7 5 > ; o ; 7 L L I I L b 3 g     ",
"          d $ O ; 5 7 7 7 L L L L L L 7 7 7 L L 7 7 > ; ; 7 L L L L L L 5 c     ",
"          p X O ; 5 7 7 7 L L L L L L L 7 7 L L L L 7 > > 7 L L L L L L 7 v     ",
"        d % O O ; 5 7 7 7 L L L L L L L 7 7 L L L L L 5 5 7 7 L L I L L 7 v     ",
"        $ O O O ; 5 7 7 7 L L L L L L L 7 7 L L L L L 7 7 7 7 L L I L L s N     ",
"        % O O O o > 5 7 7 L L L L L L L 7 7 L L L L L 7 7 7 7 L L L I L 7 6 u   ",
"      F 4 ; O O o ; 9 7 7 L L L L L L L 7 7 L L L L L 7 5 5 5 L L I P L 7 5 ; y ",
"    q.] E 7 ; o O o ; 5 7 L L L P P L L 7 7 L L L L L 7 5 ; > 7 L L P L 7 5 ; t ",
"    { $.$.o.P > O o ; 5 7 L L L P P L L 7 7 L L L L L 7 5 ; ; 5 L L I L 7 5 ; t ",
"    q.p.A.A.$.L ; o ; 5 7 7 L L I L L L 7 7 L L L L 7 7 5 ; ; 5 7 L L L L 5 > f ",
"      u.O.$.#.X.E > ; 5 8 7 L L L L L 7 7 7 7 L L 7 7 7 > ; ; 5 7 7 7 L P P I Z ",
"        V / o.$.o.5 ; 5 8 7 L L L L 7 7 7 7 7 L L 7 7 7 > ; o > 5 7 L E ..X...' ",
"        C B ! ~ U < ; 5 8 7 &.L L L 7 7 7 7 7 7 L 7 7 7 > ; o ; > 7 W C.J.G.#.q.",
"        D B r w e + ; 5 7 7 L L L L 7 7 7 7 7 7 L 7 7 7 > ; ; > L Q %.K.~.Y.a.  ",
"        -.;.^ r e + ; 5 7 7 L L L L 7 7 7 7 7 7 7 7 7 5 > ; 5 Q %.6.6.6.6.d.    ",
"        e.*.;.r e + ; 5 7 7 7 L L 7 7 7 7 7 7 7 7 7 5 5 > + 5 / 6.p.d.7.>.<.    ",
"          =.C r e # ; 5 5 5 7 7 7 7 7 7 7 7 8 5 5 5 5 ; o o , w ^ >.8.g.8.i.    ",
"            l l v - ; > > > 5 7 7 7 7 7 7 7 5 5 > > ; o O O + e B :.8.f.8.i.    ",
"                  d $ # ; ; > 5 5 5 5 5 7 5 5 > o o o o O O $ e C ,.1.1.,.e.    ",
"                    g $ ; ; 5 5 > > > > 5 5 > ; o O o o o o * l *.-.^ ;.e.t.    ",
"                      * > 5 5 5 > ; ; ; 5 > o o O o o o o # f     l C l y.      ",
"                      i > 5 8 5 > > > > 5 > o O O o o o o # d                   ",
"                      i > 5 7 7 5 5 5 5 5 > o O O o o o o # d                   ",
"                      i > 5 7 7 7 7 7 7 5 > o O O o o o o # d                   ",
"                      i > 5 7 7 7 7 7 7 5 > o O O o o o o # d                   ",
"                      i > 5 7 7 7 7 7 7 5 > o O O o o o o # d                   ",
"                      u > 5 7 7 7 7 7 7 5 > o O O o o o o # d                   ",
"                      u 2 5 7 L L L 7 7 8 > o O O o o o o # d                   ",
"                        c s L L L L 7 7 7 > o O o ; ; ; o # d                   ",
"                          z 7 L 7 7 L 7 7 > o O o ; > ; o # d                   ",
"                          z 5 7 L L L L 7 > o O o > 5 ; o # d                   ",
"                          * > 7 L L L L 7 > o O o > 5 > ; # d                   ",
"                          * > 7 7 L L L 7 > o O o > 5 5 > # d                   ",
"                          = 9 7 7 7 L L 7 > o O o > 5 5 > # y                   ",
"                          = > 7 L L L L 7 > o O o > 5 5 > # y                   ",
"                          = 5 L L L L L 7 5 ; o o ; > > > # y                   ",
"                          * 7 P P P L L 7 7 5 ; o o o o o @ y                   ",
"                          * 5 P E E E P L 7 5 ; o o ; ; ; @ y                   ",
"                          & > 7 P Q Q E L 5 ; o o ; 5 5 > $                     ",
"                          % ; > 7 L L 7 5 : o O o > 5 8 z g                     ",
"                          % o o ; ; ; ; o o O O o 2 z N A                       ",
"                          % ; ; > > ; ; o O O O $ g                             ",
"                          d 3 8 8 8 8 3 = & & & y                               ",
"                            v J J J J n                                         ",
"                              ` Y Y Y                                           ",
"                                                                                ",
"                                                                                ",
"                                                                                "
};