/* XPM */
static char *backdb1863d84b5fe6617ccfe478855f5st6e5ERvaIew4rX[] = {
/* columns rows colors chars-per-pixel */
"40 86 241 2 ",
"   c #000000",
".  c #161616",
"X  c #1A1B15",
"o  c #1C1C1C",
"O  c #181716",
"+  c #221E1D",
"@  c #1E2117",
"#  c #23231D",
"$  c #262917",
"%  c #2D3316",
"&  c #333C14",
"*  c #323A1B",
"=  c #32351A",
"-  c #37281F",
";  c #232323",
":  c #2B2623",
">  c #2B2A24",
",  c #2C2C2B",
"<  c #272922",
"1  c #332A27",
"2  c #2D3023",
"3  c #33332C",
"4  c #383827",
"5  c #343434",
"6  c #3C3B35",
"7  c #3B3B3B",
"8  c #393637",
"9  c #322D31",
"0  c #1F1F20",
"q  c #45382C",
"w  c #54362D",
"e  c #413E3B",
"r  c #443B34",
"t  c #513B34",
"y  c #613C36",
"u  c #3E490F",
"i  c #3A4412",
"p  c #3E4912",
"a  c #3A431B",
"s  c #3D4329",
"d  c #3E4038",
"f  c #414C12",
"g  c #454B1B",
"h  c #495517",
"j  c #535C1B",
"k  c #47530F",
"l  c #576716",
"z  c #4F600F",
"x  c #484629",
"c  c #564A2A",
"v  c #4D5528",
"b  c #555A28",
"n  c #43423B",
"m  c #484636",
"M  c #574836",
"N  c #4D5335",
"B  c #595535",
"V  c #68582A",
"C  c #674639",
"Z  c #685A35",
"A  c #6F4F34",
"S  c #5B652B",
"D  c #5B6533",
"F  c #766535",
"G  c #69743B",
"H  c #6E6B2E",
"J  c #6C651C",
"K  c #3F3A41",
"L  c #453C49",
"P  c #4C3D52",
"I  c #444444",
"U  c #4C4C4C",
"Y  c #4B4745",
"T  c #574A48",
"R  c #58534A",
"E  c #544858",
"W  c #545353",
"Q  c #5C5C5C",
"!  c #5B5854",
"~  c #4E4153",
"^  c #674B44",
"/  c #65584A",
"(  c #785649",
")  c #685B56",
"_  c #795D55",
"`  c #754F41",
"'  c #5E624B",
"]  c #656657",
"[  c #796659",
"{  c #6F7349",
"}  c #594C6B",
"|  c #63566A",
" . c #68536C",
".. c #636363",
"X. c #6C6C6C",
"o. c #696867",
"O. c #766A67",
"+. c #766778",
"@. c #737373",
"#. c #7C7C7C",
"$. c #787676",
"%. c #717369",
"&. c #5F6061",
"*. c #887236",
"=. c #937A37",
"-. c #856F2F",
";. c #826B2C",
":. c #865A49",
">. c #825D51",
",. c #8A6759",
"<. c #976A58",
"1. c #8F6E4F",
"2. c #A5725B",
"3. c #886A65",
"4. c #897368",
"5. c #997768",
"6. c #887A78",
"7. c #937371",
"8. c #A87868",
"9. c #B47C6A",
"0. c #AC7C75",
"q. c #845F65",
"w. c #79844F",
"e. c #7D8170",
"r. c #938D32",
"t. c #A9AB27",
"y. c #9C9A2D",
"u. c #8E8F51",
"i. c #A48A45",
"p. c #AD9054",
"a. c #959D77",
"s. c #8D8F72",
"d. c #B9856B",
"f. c #AA8578",
"g. c #B78675",
"h. c #B48E6E",
"j. c #99A56A",
"k. c #9BA477",
"l. c #A2B068",
"z. c #A4B65D",
"x. c #C48B75",
"c. c #C99679",
"v. c #CE9679",
"b. c #D7AE6C",
"n. c #545590",
"m. c #756C8A",
"M. c #6D76AF",
"N. c #545EA3",
"B. c #847B8A",
"V. c #7C83AA",
"C. c #848484",
"Z. c #8B8C8C",
"A. c #8A8985",
"S. c #968A8A",
"D. c #969B87",
"F. c #8C8A92",
"G. c #939494",
"H. c #9B9B9B",
"J. c #989898",
"K. c #918E90",
"L. c #A59998",
"P. c #A88F8C",
"I. c #9CA383",
"U. c #9DA28C",
"Y. c #9EA198",
"T. c #A2A49C",
"R. c #A2A595",
"E. c #AEA991",
"W. c #9C9CA2",
"Q. c #858BB6",
"!. c #9FA1A3",
"~. c #A3A4A4",
"^. c #A4A6A9",
"/. c #A6A9AA",
"(. c #AAABAC",
"). c #A9A9A4",
"_. c #ABAEB1",
"`. c #A4A3B7",
"'. c #AEB1B4",
"]. c #AFB3B8",
"[. c #B2B3B5",
"{. c #B3B6B9",
"}. c #B6B9BD",
"|. c #BABBBC",
" X c #B9B7B6",
".X c #B0AFAB",
"XX c #CA9685",
"oX c #D59A84",
"OX c #DAA588",
"+X c #D7AD94",
"@X c #E4AA8B",
"#X c #E4AB94",
"$X c #E9B798",
"%X c #EEB997",
"&X c #CBB8AD",
"*X c #EFBDA5",
"=X c #E39D8A",
"-X c #D6C2B6",
";X c #D3C1B3",
":X c #F6C8A8",
">X c #FDD4AF",
",X c #F9D7B9",
"<X c #ECCCB2",
"1X c #F3C29B",
"2X c #939AC2",
"3X c #BABEC2",
"4X c #B7B9C2",
"5X c #A9ABC5",
"6X c #9AA1C6",
"7X c #C4BDC7",
"8X c #BDC1C5",
"9X c #BEC4C9",
"0X c #C3C3C4",
"qX c #C1C6CB",
"wX c #C4C9CD",
"eX c #CACBCC",
"rX c #CEC3C5",
"tX c #C6CCD2",
"yX c #C9CED3",
"uX c #CBD1D6",
"iX c #CCD4DA",
"pX c #D3D4D4",
"aX c #D2D6DA",
"sX c #D4D9DE",
"dX c #DADCDD",
"fX c #DACEC9",
"gX c #E8D8C7",
"hX c #F6DCC3",
"jX c #EEDFD0",
"kX c #FCE4C7",
"lX c #FDECD3",
"zX c #F7E7D5",
"xX c #FCEFD9",
"cX c #DADEE1",
"vX c #D6DCE0",
"bX c #DEE1E5",
"nX c #E2E3E5",
"mX c #EAEBEC",
"MX c #E4E7E9",
"NX c #FEF7E6",
"BX c #FDFBEE",
/* pixels */
"                                                                                ",
"                                                                                ",
"                                                                                ",
"                                  a.k.      j.a.j.                              ",
"                                I.J.J.k.z.l.D.G.D.l.                            ",
"                      k.D.D.I.U.T././.Y.D.U.~.(.~.Y.I.D.D.k.                    ",
"                    k.R.^._.'.{.4X3X3X(.G.~.}.8X3X{.'.'./.Y.I.                  ",
"                  k.Y.(.3XwXwXqXqXwX9X[.H./.8XwXqXqXqXtX9X[.T.D.                ",
"                k.R.(.8XtXyX9X}.}.}.{._.^.(.{.}.}.}.3XtXyXqX{.T.I.              ",
"              k.R.[.0XuXiXyX8X{.{.[.(./.~.^.(.[.{.{.3XtXiXaXeX}.~.I.            ",
"            k.R. XpXcXbXvXiXtXqXqX3X'.~.J.H.(.}.9XqXwXuXsXbXnXaX|.T.I.          ",
"          j.D.(.wXnXmXMXvXiXuXuXuXtX|.^.G.W.{.qXuXuXuXiXsXbXMXMXpX XH.k.        ",
"          j.H.}.aXMXMXvXaXiXiXiXuXuXwX{.W./.9XyXuXiXiXiXiXsXbXMXcXqX^.k.        ",
"          k.~.9XsXbXcXiXiXiXiXiXiXuXuX9X'.}.tXuXiXiXiXiXiXiXvXbXvXtX'.U.z.      ",
"        k.R.'.qXuXiXiXuXuXuXiXiXiXiXuXyXtXtXuXiXiXiXiXiXiXiXiXsXiXtX}.).D.      ",
"        D.(.|.3XqXyXtXqXtXuXiXiXiXiXiXiXuXuXiXiXiXiXiXiXiXiXsXvXuX9X8X[.H.j.    ",
"      j.D.{.8X X3XtXqX X8XyXuXuXuXuXiXiXiXiXiXiXiXiXiXiXiXuXsXnXyX|.8X3XY.j.    ",
"      u.A.'.9X{.3XpXeX{.3XtXqX8XtXuXiXuXuXiXiXiXiXiXaXcXaXqXuXnXeX{.3X4XG.u.    ",
"      w.e.^.3X{.0XaXeX X8XtX}.{.qXuXuXuXyXiXsXsXaXuXiXbXpX}.0XaXqX[. X].A.w.    ",
"      G %.G.'.'.|.tXqX{.eXpX{.^.3XuXuXwX8XtXcXMXdXwXwXdXpX(.[.wX}.~.^.~.$.{     ",
"      G ] A.^.^._.3X X_.0XyX(.G.'.qXqX3X XqXcXMXdX0X|.pXeX~.~.}.(.G.J.G.X.G     ",
"      G ] C.H.J.H.(.^.H.{.8XJ.C.H.[.{.'.(.3XiXvXuX|.{.wX3XH.J./.W.G.J.G.X.G     ",
"        ] C.G.C.Z.H.G.Z.!._.Z.#.G.(.(.~.H.'.tXiXtX'.(.{._.K.Z.H.G.C.Z.A.o.G     ",
"        ] @.e.@.C.G.A.#.Z.W.C.#.G.^.^.G.C.W.9XuX9X^.J.^.H.#.C.G.A.@.#.#.] G     ",
"          %.o.o.@.C.@...V.G.#.@.G.^.^.G.#.K.{.8X{.G.A.J.Z.o.o.#.#.o.o.%.w.      ",
"            ' Q ....Q W @.Z.#.@.G.^.~.Z.@.C.~.(.!.C.#.Z.C.Q W ....Q ! {         ",
"              N Y U Y I ] #.@.@.A.G.G.C.@.#.G.J.Z.#.X.#.X.U I U U Y D           ",
"                s 7 7 7 W ......#.C.C.@.o.@.C.C.#.X.....Q I 7 n s x             ",
"                l 4 5 6 I U U W ..@.@...Q ..X.@.o.Q U U U 7 5 3 h               ",
"                  & < 5 7 I 6 7 W Q Q W U W Q Q Q I 6 I 7 5 , %                 ",
"                  & O ; , 5 , , I U U I 7 I I U I 5 , 5 5 : o $                 ",
"                  % . O : , ; ; 5 e 7 5 5 5 6 I 6 , o : , o . @ k               ",
"                & $ O O o o O 0 , 8 5 , : , 5 6 5 : O o o O . O % k             ",
"              s > > : : : ; o o : , , , : : , , , o O o ; ; o O . %             ",
"          l s 6 7 7 7 6 5 , ; O o 0 0 : , , ; 0 o O 0 , 5 5 < o . %             ",
"          h 3 7 I I I I 5 , : : : : : , 5 9 < : : : , 5 6 5 , o . $ k           ",
"          S 7 I I Y I I 9 ; , 9 5 5 5 5 8 5 5 5 5 5 5 6 6 8 , o O O $ f         ",
"        l N n I I Y I I , o ; , 5 8 6 6 6 6 6 6 6 6 7 7 7 6 5 , o . . &         ",
"        4 6 I I Y Y Y I , o o : 5 6 6 6 6 6 7 7 7 7 7 I I 7 8 5 : O . &         ",
"      b 6 7 I Y Y I I I , 0 < 5 7 I I 7 7 7 e I I I I I I 6 6 5 , O . &         ",
"      S n I I Y I I I K 5 < 5 I I I I I 7 7 I I I I I I I 7 6 5 , O . %         ",
"      S n I I Y Y I I 7 5 5 7 I Y Y I I 7 7 I Y Y Y Y I I 7 6 5 , O . @ &       ",
"      S n I I Y Y I I 6 6 6 I I I I I I 7 7 I Y Y Y Y I I 7 6 5 , O . . X i     ",
"    g 4 7 I I Y Y I 7 6 6 6 I I I I I I 7 7 I Y Y Y Y I I 7 6 5 : O . . O p     ",
"    % , 6 I I Y Y I 6 5 5 6 I I I I I I 7 7 I Y Y Y Y I I 6 5 , ; O . o , v     ",
"    % , 6 I I I I I 5 : , 6 e I I Y I I 7 7 I Y Y Y I I I 6 , ; O O o , Y ] {   ",
"    % , 6 I I I I 7 , ; , 5 7 I I I I I 7 7 I Y Y I I I 7 6 , o . o 7 Q @.#.%.w.",
"    4 5 7 I I I I 6 , o > 5 6 7 I I I I 7 7 I I I I I 7 6 8 , o o 5 Q C.S.A.e.  ",
"    N U U I 7 7 7 8 , 0 , 5 6 6 I I I 7 6 7 7 I I I I 7 6 5 , ; 7 ..@.#.$.4.    ",
"    ] o.X.Q U 7 8 5 : o > 5 6 7 I I 7 6 6 6 7 I I I I 7 6 5 , : U $.@.) ^ F     ",
"    %.Z.H.Z.X.U 5 : o o > 5 6 6 I I 7 6 6 6 6 I I I I 7 6 5 , ; r / ^ ^ C F     ",
"    u.D.).H.C...U 5 : o , 5 6 7 K K 7 6 6 6 6 e I I I 7 6 5 , + 1 w y C A -.    ",
"      u.7.6.6.s.#...I : < 5 6 6 7 7 7 6 6 6 6 e I I I 7 6 5 , + - w C :.:.*.    ",
"      r.1.4.7.s.6.O.Y : ; , 5 6 6 6 6 6 6 6 6 7 I I I 7 6 5 , + - w C :.=.y.    ",
"      i.2.d.g.<._ ^ q + O ; , 5 8 8 8 6 6 6 6 6 7 7 6 6 5 5 , # - w C F y.      ",
"      i.2.9.9.<.` w 1 o . O ; , , 9 5 8 6 6 6 6 6 6 5 9 , , : # g J J           ",
"        1.2.2.<.:.C - + . O O o o ; 9 5 6 5 5 5 5 5 5 : ; ; # =                 ",
"        r.*.:.:.;.H j $ O O O O . o : , 5 5 , , , 5 5 , : # a                   ",
"          -.V V ;.    % o o o o O O O : 5 , ; 0 ; , 5 5 , > h                   ",
"                      * o o o o O . O ; 5 5 , , , 5 8 8 9 > h                   ",
"                      * o o o o O . . ; 5 5 5 5 5 6 8 8 9 > h                   ",
"                      * o o o o O . O ; 5 6 6 6 6 6 6 6 9 2 h                   ",
"                      * o o o o O . O ; 5 6 6 6 6 6 6 6 9 2 h                   ",
"                      * o o o o O . O ; 5 6 6 6 6 6 6 8 5 2 h                   ",
"                      * o o o o O . O ; 5 6 6 7 7 7 7 6 5 2 h                   ",
"                      * o o o o O . O ; 5 6 6 K I I I 7 3 2                     ",
"                      * o o ; ; o . O ; 5 7 7 K I I I 7 x j                     ",
"                      * o ; , , o . . ; 5 7 I I 7 I I d b                       ",
"                      * o ; , , ; . . ; 5 7 I I I 7 6 5 v                       ",
"                      * ; : , , ; . . ; 5 7 I I I 7 5 > g                       ",
"                      * : , 5 5 ; . O ; 5 7 I I 7 I 5 > f                       ",
"                      = : 5 5 5 ; O O ; 5 7 I I 7 I 6 < p                       ",
"                      % : 5 5 5 ; O O ; 5 7 I I I 7 5 < p                       ",
"                      % ; , , , o O ; , 5 7 I I I I 6 < p                       ",
"                      % o o 0 o O ; , 5 6 7 I U U W I , p                       ",
"                      % o ; ; ; O o , 5 7 I U W W W I , p                       ",
"                      & > 3 5 , o O o , 7 U W Q W I 5 < p                       ",
"                        x 6 6 5 ; . . ; , 6 I I 7 5 : # u                       ",
"                          v m s # . . O o ; : : : ; o X u                       ",
"                              l & O . . O o : , , < : @ p                       ",
"                                  & & & & 4 8 8 8 8 5 *                         ",
"                                          S I L L L N                           ",
"                                            Z R R R                             ",
"                                                                                ",
"                                                                                ",
"                                                                                "
};