/* XPM */
static char *front836bf3845e89f7fd6dcd63a9e6eUrl9OcZNczQKnmUM[] = {
/* columns rows colors chars-per-pixel */
"40 86 241 2 ",
"   c #000000",
".  c #161616",
"X  c #1A1B16",
"o  c #1C1C1C",
"O  c #181716",
"+  c #241E1D",
"@  c #1F2117",
"#  c #23241D",
"$  c #262918",
"%  c #2D3317",
"&  c #333B14",
"*  c #343B1B",
"=  c #333819",
"-  c #302E1B",
";  c #242423",
":  c #2A2B24",
">  c #2B2B2B",
",  c #2B2623",
"<  c #332D2C",
"1  c #352A25",
"2  c #2F3125",
"3  c #33342D",
"4  c #373927",
"5  c #343434",
"6  c #3B3B34",
"7  c #3B3B3B",
"8  c #393638",
"9  c #302D32",
"0  c #48372C",
"q  c #443C35",
"w  c #553C34",
"e  c #4D3228",
"r  c #633C35",
"t  c #3A4313",
"y  c #3E4912",
"u  c #3A421B",
"i  c #3A4417",
"p  c #3E480F",
"a  c #3D4227",
"s  c #3E4136",
"d  c #414E14",
"f  c #434C1A",
"g  c #495517",
"h  c #495213",
"j  c #566519",
"k  c #56680F",
"l  c #72671E",
"z  c #46472A",
"x  c #54482C",
"c  c #4C5625",
"v  c #545929",
"b  c #494738",
"n  c #544D3A",
"m  c #574737",
"M  c #575539",
"N  c #4B5134",
"B  c #67473A",
"V  c #665A36",
"C  c #6D5030",
"Z  c #5E6937",
"A  c #576425",
"S  c #666839",
"D  c #796837",
"F  c #667137",
"G  c #6F6F2D",
"H  c #3F3B41",
"J  c #453C49",
"K  c #4A3F50",
"L  c #444444",
"P  c #4C4C4C",
"I  c #4A4547",
"U  c #564B46",
"Y  c #595447",
"T  c #4C4052",
"R  c #544659",
"E  c #535353",
"W  c #5B5B5B",
"Q  c #5B5755",
"!  c #684B45",
"~  c #65574A",
"^  c #795548",
"/  c #665855",
"(  c #785C53",
")  c #744F41",
"_  c #5D6349",
"`  c #676846",
"'  c #78784C",
"]  c #666657",
"[  c #766656",
"{  c #72714E",
"}  c #5A4D67",
"|  c #645669",
" . c #695771",
".. c #636363",
"X. c #6B6B6B",
"o. c #6A6765",
"O. c #766966",
"+. c #756777",
"@. c #747474",
"#. c #7C7C7C",
"$. c #7B7677",
"%. c #72706E",
"&. c #3F4040",
"*. c #887339",
"=. c #8D7635",
"-. c #825B3D",
";. c #845948",
":. c #895E53",
">. c #896758",
",. c #966958",
"<. c #8D704E",
"1. c #A4725A",
"2. c #866966",
"3. c #956D68",
"4. c #89736B",
"5. c #9A7668",
"6. c #877977",
"7. c #947573",
"8. c #AA7866",
"9. c #B07D6C",
"0. c #7C8A26",
"q. c #7B8450",
"w. c #7C8169",
"e. c #8F8933",
"r. c #99A333",
"t. c #A8AA26",
"y. c #A1972F",
"u. c #8F894C",
"i. c #AA8E4E",
"p. c #84817B",
"a. c #8C9279",
"s. c #959C79",
"d. c #918B70",
"f. c #B9856B",
"g. c #B98775",
"h. c #AB8772",
"j. c #9AA56B",
"k. c #9BA676",
"l. c #A1AF6A",
"z. c #A3B65E",
"x. c #C68A76",
"c. c #C99579",
"v. c #D1977D",
"b. c #D7AF6A",
"n. c #D4AB66",
"m. c #52548F",
"M. c #726F8F",
"N. c #6B76B3",
"B. c #5C5E95",
"V. c #847987",
"C. c #7D8298",
"Z. c #838383",
"A. c #8B8B8C",
"S. c #8A8988",
"D. c #948A89",
"F. c #969B87",
"G. c #939494",
"H. c #9B9B9C",
"J. c #989797",
"K. c #908C94",
"L. c #A89897",
"P. c #AC8D87",
"I. c #9CA287",
"U. c #9EA197",
"Y. c #A3A599",
"T. c #A9AA8D",
"R. c #9C9EA1",
"E. c #9A9CA6",
"W. c #8B91B8",
"Q. c #9EA1A3",
"!. c #9EA2BD",
"~. c #A3A4A4",
"^. c #A4A6A9",
"/. c #A6A9AB",
"(. c #AAABAC",
"). c #A8A9A5",
"_. c #B6A9A5",
"`. c #ABAEB1",
"'. c #A8A7B1",
"]. c #AEB1B4",
"[. c #AFB4B9",
"{. c #B2B4B5",
"}. c #B2B6B9",
"|. c #B6B9BC",
" X c #BABBBC",
".X c #BAB3B4",
"XX c #B0B1AF",
"oX c #AD9EA5",
"OX c #CA9685",
"+X c #D69C84",
"@X c #C49085",
"#X c #E29C8A",
"$X c #DAA588",
"%X c #D2AB93",
"&X c #E4A98B",
"*X c #E6AC93",
"=X c #EAB699",
"-X c #EBB693",
";X c #CCB7AC",
":X c #EEBBA2",
">X c #F1C29B",
",X c #D8C4B8",
"<X c #F6C9A8",
"1X c #FCD3AE",
"2X c #FBDBBB",
"3X c #F7D6BA",
"4X c #EDCBB1",
"5X c #FEE0BF",
"6X c #BABEC2",
"7X c #B8B9C5",
"8X c #A5A9C6",
"9X c #969DC4",
"0X c #C4BCC5",
"qX c #BCC1C5",
"wX c #BEC3C9",
"eX c #C2C4C5",
"rX c #C2C6CB",
"tX c #C4C9CE",
"yX c #CBC9CA",
"uX c #C6CCD2",
"iX c #CACED3",
"pX c #CBD1D5",
"aX c #CCD4DA",
"sX c #D2D3D4",
"dX c #D2D6DB",
"fX c #D4D9DD",
"gX c #DBDBDC",
"hX c #DBCFC9",
"jX c #ECDAC7",
"kX c #F7DDC3",
"lX c #FCE5C9",
"zX c #FCECD4",
"xX c #FFF2DC",
"cX c #DADEE2",
"vX c #D6DBE0",
"bX c #DEE1E4",
"nX c #E1E3E5",
"mX c #EAEBEC",
"MX c #E5E7E9",
"NX c #FDF7E6",
"BX c #FFFEF1",
/* pixels */
"                                                                                ",
"                                                                                ",
"                                                                                ",
"                                  k.k.      j.s.j.                              ",
"                                k.G.G.k.z.l.F.J.F.j.                            ",
"                      j.s.F.I.I.Y.)./.U.F.I.~./.~.Y.I.I.F.s.                    ",
"                    l.U.~.(.`.].|.6X6X`.J.R.}.6X6X}.].`./.H.I.                  ",
"                  k.U.(.|.rXtXrXrXtXrX}.R.~.6XtXtXrXrXtXwX{.~.I.                ",
"                l.U.(.6XtXiXrX6X|.|.|.].~.^.{.|.|.|.6XuXiXrX}.~.I.              ",
"              k.U.XXeXpXaXpXwX|.{.{.(./.~.~.(.].{.}. XtXaXaXiX X).I.            ",
"            k.Y.XXyXgXnXcXaXuXrXrXqX{.~.J.H./.|.wXrXtXiXfXbXnXgXeX).I.          ",
"            F./.eXgXmXMXcXaXaXaXaXuX6X/.J.H.].wXiXaXaXaXfXbXMXmXsX|.U.s.        ",
"          j.J.}.pXnXMXvXdXaXaXaXpXuXwX].J.R.|.tXiXpXaXaXaXdXbXMXcXtX/.s.        ",
"          k.Y.qXfXMXcXiXuXiXuXwX6X].^.J.K.K.R.`.}.qXrXiXiXtXsXnXnXpX].U.l.      ",
"        k.Y.(.wXdXnXdX6XwXuX6X(.J.S.$.$.p.6.@.#.G.~.{.rXtX6XeXcXbXpX6X).I.      ",
"        F.^.|.qXtXdXiX|.eXpX|.J.6.4.4.7.P.h.7.2.4.D.~.rXiX X XsXdXrXqX}.H.k.    ",
"        F.].wX}.}.rXwX{.eXsX{.S.2.,.g.+X$X$XOX8.>.4.J.eXsX|.}.rXwX{.6X6XQ.s.    ",
"        a.`.6X(.~.].`.~.|.tX~.6.2.8.+X:X<X<X-Xx.,.2.S.}.tX(.~.].(.~.}.6XH.d.    ",
"        w.Q.}.Q.J.~.H.G.^.|.J.4.5.g.*X1X2X2X<X$X9.3.6./.}.H.J.~.H.J./.}.A.q.    ",
"        { K.^.J.G.H.J.C.G.).P.5.g.$X<X2XlXlX2X=XOX9.7.L.~.S.Z.J.J.G.R.~.#.{     ",
"        ] Z.J.S.Z.J.S.@.Z.L.P.9.v.=X2XzXzXzXlX4X&Xx.9.L.J.$.$.K.A.Z.G.J.@.`     ",
"        ] p.A.@.X.#.$...$.G.P.g.+X<XlXNXNXNXNX2X=Xc.9.P.A.o.o.#.$.o.#.K.%.`     ",
"        q.w.$.W Q o.o.Q ..V.4.3.x.=XzXBXBXBXNX3X$Xg.3.6.$.W Q o...Q o.p.q.      ",
"          q.] E E E E P R } | | 5.OXjXBXBXBXNX,Xg.2.| | } R P E E E Q ]         ",
"          { / O.[ U I U Q | +.+.2.D.,XNXNXNXzX;X7.2.+. .} U U I / O.] `         ",
"          q.2.h.h./ U ! [ #.K.K.+.6.;XzXzXzXjXL.+.V.J.A.+.( ! U >.h.d.'         ",
"            u.h.7.>.^ ^ 7.J.G.V.| +.;XlXzXzXjXL.|  .K.E.K.>.^ ^ 2.h.i.r.        ",
"              u.>.>.>.,.P.`.K. .} +.;XlXzXzXjXL. .} M.E.(.7.>.>.>.<.r.          ",
"                u.>.5.g.;X7XW.B.m.M.;XzXxXxXjX'.B.m.B.!.;X%Xh.3.<.              ",
"                  ' 7.OX;XeX!.C.N.W.yXzXNXxXlX7XW.N.W.7X,X=Xg.2.'               ",
"                  { 2.g.%X,X,X0X0XyXjXzXzXzXlXjX0X7X0X,X=XOX8.O.                ",
"                  u.>.3.g.$X<X3X3XkXkXlXlXlXlX5XkX3X4X=X+X9.>.'                 ",
"                    e.( 2.g.+X=X<X<X<X<X<X<X<X<X<X:X*XOX8.( {                   ",
"                    G Y ! ( 8.x.v.$X$X&X&X&X&X$Xv.c.9.,.! J x                   ",
"                    a b 7 0 B ;.:.,.9.f.f.9.8.1.,.:.^ w 1 , : i                 ",
"                  % > 7 8 > 1 0 w C 1.1.;.) ! B w w 0 < , ; ; : f               ",
"                % @ : 7 7 5 > , , x =.=.x 1 , , , # , < 5 5 5 5 4 u             ",
"              % O o ; 7 L 7 5 > > 4 C C 4 : : : ; ; > 5 7 7 7 7 5 2 f           ",
"            % X O o ; 7 L L L 7 7 6 0 0 6 5 5 5 5 5 5 5 7 L L L 7 8 2 i         ",
"          d @ O O o ; 7 L L L L 7 n D D b 7 7 7 7 7 7 7 7 L L L L 7 > &         ",
"          h $ o o o ; 7 L L L L 7 n *.*.n 7 7 7 7 7 5 5 7 L L L L L > =         ",
"          a 2 > ; o ; 5 L L L L 7 q x x b 7 J 7 7 7 5 > > 7 L L L L 3 =         ",
"        % > 5 5 5 ; > 5 7 L L L 7 q x x q 7 L L 7 7 5 ; ; 7 L L I L 5 4 j       ",
"        % > 7 7 5 5 5 7 7 L L L 7 n *.*.n q L L L 7 5 ; ; 7 L L L L L 6 a       ",
"      F b 7 L 7 5 > 5 5 7 L L L 7 n D D n 7 L L L 7 5 > > 5 7 L L L L 7 > i     ",
"    q.] W W W P 5 ; ; 5 7 L L L 7 6 z z q 7 L L L 7 7 5 > ; > 7 L L L 7 > i     ",
"    { @.#.Z.$.X.E > ; 5 7 L L L 7 b V v b 7 L L L 7 7 7 > ; ; 7 L I L s > i     ",
"    q.p.G.J.J.J.$.7 ; 5 7 L L 7 7 n =.=.n 7 7 L L 7 7 7 > ; ; 7 L I L L 5 u     ",
"      u.d.p.A.H.#.7 ; 5 7 L 7 7 8 b V V b 7 7 7 L 7 7 7 > ; ; 7 L I I L L N F   ",
"        ^ [ $.S.$.7 ; 5 7 L 7 7 8 6 0 0 6 7 7 7 L 7 7 7 5 > 5 L Q W W W ..] Y   ",
"        C ) ( >./ < ; 5 7 L 7 7 8 n D D b 7 7 7 L 7 7 7 7 L E o.C.G.R.J.G.Z.] S ",
"        C B ;.^ B , ; 5 7 L 7 7 8 n *.*.n 7 7 7 L 7 7 7 L Q %.A.^.|.6X[.Q.S.'   ",
"        C ^ :.;.m , ; 5 7 7 7 7 7 q x x q 8 7 7 L 7 7 7 L W M.^.}.{.(.H.S.d.    ",
"        =.-.;.B w , ; 5 7 7 7 7 7 q x x q 5 5 7 L 7 7 7 L E %.G._._.L.D.4.u.    ",
"          =.C B e # ; 5 5 5 5 5 8 n *.*.n > ; 5 7 7 7 5 7 q U / 5.@XP.8.5.u.    ",
"            l l v - ; 5 5 > > > > 0 D D z ; o ; > 9 > > > < < w :.x.x.8.,.i.    ",
"                  f 2 5 > ; o o o # 1 1 # o o o o o o o + ; , e ;.x.f.1.<.e.    ",
"                    g 4 > ; ; ; ; ; ; ; ; o o O O O o o o o + 1 B :.,.;.=.t.    ",
"                      * > 5 5 5 5 5 5 5 5 > o O O o o o o o # = x C C l y.      ",
"                      i > 5 7 7 L 7 7 7 8 5 > ; o o o o o @ i k                 ",
"                      i > 5 7 L L L 7 7 7 7 5 ; o o o o o # d                   ",
"                      u > 5 L L L L L 7 7 7 5 > o o o o o # d                   ",
"                        a 6 L L L L L L 7 7 5 > o o o o o # d                   ",
"                        A b L L L L L L 7 7 5 > o o o o o # d                   ",
"                          N 7 L L L L L 7 7 5 > o o o o o # d                   ",
"                          N 7 7 L L L L 7 7 5 > o o o o o # d                   ",
"                          N 7 7 L L L L 7 7 5 > o o o o o # d                   ",
"                          N 7 L 7 7 L L 7 7 5 > o o o o o # d                   ",
"                          z 5 7 L L L L 7 7 5 > o o o o o # d                   ",
"                          4 > 7 L L L L 7 7 5 > o o o o o # d                   ",
"                          * > 7 7 L L L L 7 5 > o o o o o # d                   ",
"                          = > 7 7 7 L L L L 5 > o o o o o # d                   ",
"                          = > 7 L L L L L L 5 : o o o o o @ d                   ",
"                          = > 7 P P P P L 7 5 ; o ; ; > ; # y                   ",
"                          = > L E W W E L 5 ; o o > 7 7 5 ; y                   ",
"                          % ; 7 P E E P 7 > o o > 5 L L 7 : y                   ",
"                          % o : 5 7 L 5 : o o > 7 L L L 7 2 h                   ",
"                          % o ; 5 8 7 > o O o > J K K T b c                     ",
"                          & > 5 7 L 7 5 ; o o < I U U U S                       ",
"                          = 5 P W W W P 5 ; # z                                 ",
"                          g b W X.@.@.| L 3 *                                   ",
"                          0.S Q } | | } T M                                     ",
"                            e.` ~ ~ ~ ~ ~                                       ",
"                                                                                ",
"                                                                                ",
"                                                                                "
};