/* XPM */
static char *frontb1863d84b5fe6617ccfe478855f5st6e5ERvaIew4rX[] = {
/* columns rows colors chars-per-pixel */
"40 86 241 2 ",
"   c #000000",
".  c #161616",
"X  c #1A1B15",
"o  c #1C1C1C",
"O  c #181716",
"+  c #221E1D",
"@  c #1E2117",
"#  c #23231D",
"$  c #262917",
"%  c #2D3316",
"&  c #333C14",
"*  c #323A1B",
"=  c #32351A",
"-  c #37281F",
";  c #232323",
":  c #2B2623",
">  c #2B2A24",
",  c #2C2C2B",
"<  c #272922",
"1  c #332A27",
"2  c #2D3023",
"3  c #33332C",
"4  c #383827",
"5  c #343434",
"6  c #3C3B35",
"7  c #3B3B3B",
"8  c #393637",
"9  c #322D31",
"0  c #1F1F20",
"q  c #45382C",
"w  c #54362D",
"e  c #413E3B",
"r  c #443B34",
"t  c #513B34",
"y  c #613C36",
"u  c #3E490F",
"i  c #3A4412",
"p  c #3E4912",
"a  c #3A431B",
"s  c #3D4329",
"d  c #3E4038",
"f  c #414C12",
"g  c #454B1B",
"h  c #495517",
"j  c #535C1B",
"k  c #47530F",
"l  c #576716",
"z  c #4F600F",
"x  c #484629",
"c  c #564A2A",
"v  c #4D5528",
"b  c #555A28",
"n  c #43423B",
"m  c #484636",
"M  c #574836",
"N  c #4D5335",
"B  c #595535",
"V  c #68582A",
"C  c #674639",
"Z  c #685A35",
"A  c #6F4F34",
"S  c #5B652B",
"D  c #5B6533",
"F  c #766535",
"G  c #69743B",
"H  c #6E6B2E",
"J  c #6C651C",
"K  c #3F3A41",
"L  c #453C49",
"P  c #4C3D52",
"I  c #444444",
"U  c #4C4C4C",
"Y  c #4B4745",
"T  c #574A48",
"R  c #58534A",
"E  c #544858",
"W  c #545353",
"Q  c #5C5C5C",
"!  c #5B5854",
"~  c #4E4153",
"^  c #674B44",
"/  c #65584A",
"(  c #785649",
")  c #685B56",
"_  c #795D55",
"`  c #754F41",
"'  c #5E624B",
"]  c #656657",
"[  c #796659",
"{  c #6F7349",
"}  c #594C6B",
"|  c #63566A",
" . c #68536C",
".. c #636363",
"X. c #6C6C6C",
"o. c #696867",
"O. c #766A67",
"+. c #766778",
"@. c #737373",
"#. c #7C7C7C",
"$. c #787676",
"%. c #717369",
"&. c #5F6061",
"*. c #887236",
"=. c #937A37",
"-. c #856F2F",
";. c #826B2C",
":. c #865A49",
">. c #825D51",
",. c #8A6759",
"<. c #976A58",
"1. c #8F6E4F",
"2. c #A5725B",
"3. c #886A65",
"4. c #897368",
"5. c #997768",
"6. c #887A78",
"7. c #937371",
"8. c #A87868",
"9. c #B47C6A",
"0. c #AC7C75",
"q. c #845F65",
"w. c #79844F",
"e. c #7D8170",
"r. c #938D32",
"t. c #A9AB27",
"y. c #9C9A2D",
"u. c #8E8F51",
"i. c #A48A45",
"p. c #AD9054",
"a. c #959D77",
"s. c #8D8F72",
"d. c #B9856B",
"f. c #AA8578",
"g. c #B78675",
"h. c #B48E6E",
"j. c #99A56A",
"k. c #9BA477",
"l. c #A2B068",
"z. c #A4B65D",
"x. c #C48B75",
"c. c #C99679",
"v. c #CE9679",
"b. c #D7AE6C",
"n. c #545590",
"m. c #756C8A",
"M. c #6D76AF",
"N. c #545EA3",
"B. c #847B8A",
"V. c #7C83AA",
"C. c #848484",
"Z. c #8B8C8C",
"A. c #8A8985",
"S. c #968A8A",
"D. c #969B87",
"F. c #8C8A92",
"G. c #939494",
"H. c #9B9B9B",
"J. c #989898",
"K. c #918E90",
"L. c #A59998",
"P. c #A88F8C",
"I. c #9CA383",
"U. c #9DA28C",
"Y. c #9EA198",
"T. c #A2A49C",
"R. c #A2A595",
"E. c #AEA991",
"W. c #9C9CA2",
"Q. c #858BB6",
"!. c #9FA1A3",
"~. c #A3A4A4",
"^. c #A4A6A9",
"/. c #A6A9AA",
"(. c #AAABAC",
"). c #A9A9A4",
"_. c #ABAEB1",
"`. c #A4A3B7",
"'. c #AEB1B4",
"]. c #AFB3B8",
"[. c #B2B3B5",
"{. c #B3B6B9",
"}. c #B6B9BD",
"|. c #BABBBC",
" X c #B9B7B6",
".X c #B0AFAB",
"XX c #CA9685",
"oX c #D59A84",
"OX c #DAA588",
"+X c #D7AD94",
"@X c #E4AA8B",
"#X c #E4AB94",
"$X c #E9B798",
"%X c #EEB997",
"&X c #CBB8AD",
"*X c #EFBDA5",
"=X c #E39D8A",
"-X c #D6C2B6",
";X c #D3C1B3",
":X c #F6C8A8",
">X c #FDD4AF",
",X c #F9D7B9",
"<X c #ECCCB2",
"1X c #F3C29B",
"2X c #939AC2",
"3X c #BABEC2",
"4X c #B7B9C2",
"5X c #A9ABC5",
"6X c #9AA1C6",
"7X c #C4BDC7",
"8X c #BDC1C5",
"9X c #BEC4C9",
"0X c #C3C3C4",
"qX c #C1C6CB",
"wX c #C4C9CD",
"eX c #CACBCC",
"rX c #CEC3C5",
"tX c #C6CCD2",
"yX c #C9CED3",
"uX c #CBD1D6",
"iX c #CCD4DA",
"pX c #D3D4D4",
"aX c #D2D6DA",
"sX c #D4D9DE",
"dX c #DADCDD",
"fX c #DACEC9",
"gX c #E8D8C7",
"hX c #F6DCC3",
"jX c #EEDFD0",
"kX c #FCE4C7",
"lX c #FDECD3",
"zX c #F7E7D5",
"xX c #FCEFD9",
"cX c #DADEE1",
"vX c #D6DCE0",
"bX c #DEE1E5",
"nX c #E2E3E5",
"mX c #EAEBEC",
"MX c #E4E7E9",
"NX c #FEF7E6",
"BX c #FDFBEE",
/* pixels */
"                                                                                ",
"                                                                                ",
"                                                                                ",
"                                  a.k.      j.a.j.                              ",
"                                k.G.G.k.z.l.D.G.D.l.                            ",
"                      k.a.D.I.U.T././.Y.D.U.~.(.~.Y.I.I.D.a.                    ",
"                    l.Y.^._._.'.}.3X|.(.G.!.{.3X3X{.'._./.Y.I.                  ",
"                  k.Y.(.3XqXqXqXqXwXqX[.H./.8XwXwXqXqXwX8X[.T.I.                ",
"                k.R.(.3XtXyX9X|.}.}. X'.^.(.{.}.}.}.8XtXyXqX{.T.I.              ",
"              k.R.[.0XuXiXyX8X{.{.[.(./.~.^.(.'.{.{.|.wXiXiXeX}.~.I.            ",
"            k.R. XyXcXbXvXiXtXqXqX3X'.~.J.H.(.}.9XqXwXuXvXbXnXaX|.T.I.          ",
"          j.D.(.wXnXmXMXcXiXuXuXuXtX}.^.G.H.[.qXyXuXuXiXvXbXmXMXpX{.H.k.        ",
"          j.H.}.aXMXMXsXiXiXuXuXuXtX9X_.G.!.4XwXyXuXuXuXiXsXbXMXcXqX^.k.        ",
"          k.~.9XvXMXdXeXtXyXwX8X}.'.^.J.Z.K.W._.}.8XqXyXyXtXaXMXbXtX_.U.z.      ",
"        k.R.'.qXsXnXpX3XqXtX3X(.J.A.$.$.C.#.@.6.G.^.{.wXwX|.eXbXcXtX}.~.I.      ",
"        D.(.}.8XtXaXeX XqXyX{.J.6.4.4.5.P.f.7.3.4.S.(.wXtX}.8XaXuXqX3X[.J.k.    ",
"      j.D.{.8X{.}.qX3X{.wXpX(.A.3.<.x.oXOXOXXX8.,.6.H.eXpX{.{.qX3X{.3X3XY.j.    ",
"      u.A.'.3X/.^.[.(.^.|.qXW.6.3.9.OX%X:X:X#Xx.<.3.Z.|.qX(.^.[.(.~.}.4XG.s.    ",
"      w.e.^.{.H.J.^.H.G./.{.G.4.8.x.$X>X,X,X:XoX8.4.C._.{.J.G.~.H.G._.'.A.w.    ",
"      { %.G.^.G.G.H.G.C.G.).S.8.g.OX:XkXkXkX,X$Xc.8.0.L.W.C.A.H.J.G.~.!.$.{     ",
"        ] A.J.A.A.G.C.@.C.L.f.d.oX*XhXlXlXlXkX:XOXg.f.L.G.@.#.G.Z.C.G.G.X.G     ",
"        ] C.Z.@.X.C.@...#.J.f.d.OX:XlXNXNXNXxX,X#Xx.0.P.A.o.o.C.@.o.C.Z.%.G     ",
"        w.e.$.Q Q o...W o.B.7.8.c.1XzXBXBXBXNX<XOX8.7.6.$.Q Q o...W X.s.w.      ",
"          { Q W W W W U E }  ._ 8.+XjXBXBXBXxX&Xf.q. .| } U U W W W W {         ",
"          { ) O.[ T Y T E | +.+.3.P.fXNXNXNXzXE.7.+.+. .E T Y Y ) O.) '         ",
"          { 4.f.f./ T ^ O.B.G.F.+.6.-XlXlXlXgXP.+.B.J.C.O.( ^ T 4.g.5.{         ",
"            u.f.5._ ( _ 6.J.G.m. .6.&XlXlXlX<XS. .+.F.W.S.,.( ( 3.f.p.y.        ",
"              u.,.,.,.<.P._.B.} } m.&XlXlXlXgXS.} } m.^.).5.,.,.,.1.y.          ",
"                u.,.5.g.&X4XV.n.n.B.rXlXxXxXgXW.N.n.M.5X&XXX8.3.1.              ",
"                  [ 7.OX-X0X6XV.M.2XfXxXNXxXjX5XV.M.2X4X-X+Xf.3.                ",
"                  [ 3.g.+X-XrX7X7XrXjXlXlXlXzXfX7X3X7X-X$XXX5.O.                ",
"                  u.,.5.g.#X:X,X,XhXkXkXkXkXkXhX,X,X<X$XXX8.,.1.                ",
"                    r._ 3.g.OX$X:X:X:X:X:X:X:X:X:X*X#Xc.8._ {                   ",
"                    S t T >.8.x.v.OXOX@X@X@X@XOXv.c.9.,.( T B                   ",
"                    = : : q C :.1.<.8.9.9.d.d.2.<.:.( t 8 e n g                 ",
"                  * : : : > 4 w w y C ^ ( 1.2.:.M w q 1 5 7 5 $ p               ",
"                4 3 5 5 5 5 > : # : : 1 4 F i.F 1 : > 3 6 7 5 # $ i             ",
"              4 3 6 K 7 7 5 , > < < < : > x V c 1 , 5 6 I I 5 o . @ p           ",
"            = 3 7 I I I 7 6 5 5 5 5 5 5 5 q q q 6 7 I I I I 5 o . O @ p         ",
"          u < 5 I I I I K 6 6 6 6 6 6 6 e Z F Z n I I I I I 5 o . . . &         ",
"          p < 6 I I Y I 7 5 5 6 6 6 6 7 n F =.F n I I I I I 5 o O o o *         ",
"          f < 6 I Y Y I 5 , 9 8 6 7 7 7 6 m c m 7 I I I I 7 , o ; , , 3 g       ",
"          g 3 7 I Y Y I , ; , 8 7 7 I I 7 m c x 7 I I I I 6 , : , 5 5 5 < p     ",
"        g s d I I I I I , ; , 6 I I I I n Z =.Z n I I I I 6 5 5 5 6 6 5 < p     ",
"        $ 5 I I Y I K 5 , < 9 6 I I I I n Z *.Z n I I I I 6 5 9 5 6 I I 6 v     ",
"        $ 5 I Y Y I 5 < , 5 5 7 I I I I 7 q x q 7 I I I I 6 , ; , I W Q Q ] {   ",
"      f $ 5 I Y Y I 5 ; , 5 6 6 I I I 7 7 M V M 7 7 I I I 6 , ; 7 ..@.#.#.#.%.w.",
"      h 2 6 I Y Y I 5 0 , 5 6 7 I I 7 6 n F =.F n 6 7 I I 6 , , W A.J.J.J.A.e.  ",
"      D n I I Y Y I 5 ; > 5 6 7 I I 7 6 7 M V B e 6 6 I I 6 , , Q G.G.A.6.s.u.  ",
"    ' ] ..&.Q Q ! U 7 , , 5 6 6 I I 7 6 6 q x q 6 6 6 I I 6 , : ! A.6.O._ *.    ",
"    ' @.Z.J.H.J.Z.@.Q U 7 6 6 7 I I 7 6 n Z ;.Z e 6 6 I I 6 , : m [ ,.( C F     ",
"    { e.J._.}.3X'.J.m...U 7 6 7 I I 7 6 n Z =.F n 6 7 K I 6 , ; q ` :.` C V     ",
"      u.s.G.~.'.{.'.G.o.U 7 6 6 I I 6 6 6 x c m 6 6 6 7 7 6 , ; q A :.:.C V     ",
"      u.4.6.S.L.).L.C.&.U 7 6 7 I 7 5 5 6 x c x 6 6 6 6 6 5 , # q C :.:.;.r.    ",
"      i.2.5.f.XXf.3.R I 7 6 8 6 7 6 , , 6 Z =.Z e 5 5 8 5 5 , # - w C F y.      ",
"      i.<.2.9.v.9.C q 9 , , , , 5 , o o 1 B ;.V 3 , , , 5 5 , # g J J -.        ",
"        1.<.9.x.2.C 1 : 0 o o o o o O O o > 4 > ; 0 0 ; : 3 3 *                 ",
"        r.*.:.<.( w : + o O O O . . . o ; : : : : : : : : 2 g                   ",
"          -.V A c q $ # o o o O O O O : 9 5 5 5 5 5 5 5 , 2 h                   ",
"                    h $ o o o o O o : , 5 6 6 7 K I 7 6 5 2 h                   ",
"                      = o o o o O 0 , 5 6 6 7 I I I I 7 5 2 h                   ",
"                      * o o o o O ; 5 6 6 7 I I I I I 7 5 2                     ",
"                      * o o o o O ; 5 6 6 7 I I I I I 7 s g                     ",
"                      * o o o o O ; 5 6 6 7 I Y I I I 7 v                       ",
"                      * o o o o O ; 5 6 6 7 I Y I I I n S                       ",
"                      * o o o o O ; 5 8 6 7 I I I I 7 d S                       ",
"                      * o o o o O ; 5 6 6 7 I I I 7 7 d S                       ",
"                      * o o o o O ; 5 6 6 7 I I 7 I 7 d S                       ",
"                      * o o o o O 0 5 6 6 7 I I I 7 6 5 v                       ",
"                      * o o o o O 0 5 6 6 I I I I 7 5 > g                       ",
"                      * o o o o O 0 9 6 I I I I I 7 5 > f                       ",
"                      * o o o o O 0 9 7 I I I I 7 I 6 < p                       ",
"                      % O o o o O ; 5 7 I I I I I 7 5 < p                       ",
"                      % ; : , : o o , 8 I U U U U I 5 < p                       ",
"                      = , 5 6 5 ; O o , I U ! Q W U 6 < p                       ",
"                      * , I I 7 , ; O ; 5 I W W U I 5 # u                       ",
"                      a 5 I Y I K 5 0 O ; 9 7 I 7 , ; @ u                       ",
"                      l N I L L L 8 ; . O : 5 6 5 , ; @ u                       ",
"                          R T T T e ; O o , 6 I d 6 5 # u                       ",
"                                  S = o , I W Q Q W I > p                       ",
"                                      2 6 W X.$.@...W x z                       ",
"                                        Y ~ | | | Q / H                         ",
"                                          / / / / / G                           ",
"                                                                                ",
"                                                                                ",
"                                                                                "
};