/* XPM */
static char *frontc0a5601470ae354032d0523d5b28kefZd2l4tgUYoXz[] = {
/* columns rows colors chars-per-pixel */
"40 86 244 2 ",
"   c #000000",
".  c #161616",
"X  c #1D1D1D",
"o  c #191916",
"O  c #221E1D",
"+  c #262C14",
"@  c #23221D",
"#  c #2A2D1B",
"$  c #282B19",
"%  c #2D321B",
"&  c #2C3215",
"*  c #333B15",
"=  c #343A1B",
"-  c #36281E",
";  c #231E25",
":  c #242424",
">  c #2B2522",
",  c #2C2B2B",
"<  c #292628",
"1  c #352B28",
"2  c #33332D",
"3  c #373926",
"4  c #322B36",
"5  c #343434",
"6  c #3B3B35",
"7  c #3B3B3B",
"8  c #393437",
"9  c #2E2C2D",
"0  c #1F1E1E",
"q  c #44362C",
"w  c #443C36",
"e  c #573C33",
"r  c #513428",
"t  c #573D29",
"y  c #3C4419",
"u  c #3D4B0F",
"i  c #3E4429",
"p  c #3E4036",
"a  c #444D15",
"s  c #4A5618",
"d  c #4F5A15",
"f  c #586818",
"g  c #5F7017",
"h  c #6C6D1B",
"j  c #484729",
"k  c #554A2A",
"l  c #4B5426",
"z  c #555928",
"x  c #42413B",
"c  c #494735",
"v  c #574836",
"b  c #4E5431",
"n  c #585738",
"m  c #68592D",
"M  c #66483B",
"N  c #665A36",
"B  c #724F34",
"V  c #576326",
"C  c #5D6434",
"Z  c #64653A",
"A  c #786738",
"S  c #68733A",
"D  c #706C29",
"F  c #3D3542",
"G  c #3B2D43",
"H  c #443947",
"J  c #4D3C51",
"K  c #444444",
"L  c #4C4C4C",
"P  c #4B4645",
"I  c #554B49",
"U  c #5A5449",
"Y  c #564A57",
"T  c #545454",
"R  c #5B5B5B",
"E  c #5B5757",
"W  c #4E464D",
"Q  c #65574A",
"!  c #785448",
"~  c #655957",
"^  c #72524E",
"/  c #5F6252",
"(  c #6A6649",
")  c #747948",
"_  c #676658",
"`  c #776659",
"'  c #717551",
"]  c #5B4966",
"[  c #5B526B",
"{  c #665569",
"}  c #6B596D",
"|  c #646464",
" . c #6C6C6B",
".. c #6A6765",
"X. c #756A68",
"o. c #72746A",
"O. c #776676",
"+. c #747474",
"@. c #7B7B7B",
"#. c #787878",
"$. c #6D6C6E",
"%. c #836B35",
"&. c #88743B",
"*. c #947C37",
"=. c #847328",
"-. c #845F3F",
";. c #865B4A",
":. c #8A5E51",
">. c #896659",
",. c #976957",
"<. c #927050",
"1. c #A6755C",
"2. c #A16D5C",
"3. c #866B65",
"4. c #867269",
"5. c #98756A",
"6. c #877A77",
"7. c #9A7674",
"8. c #946E6E",
"9. c #A87766",
"0. c #B47C6A",
"q. c #AA7C73",
"w. c #805B64",
"e. c #798D14",
"r. c #798338",
"t. c #7A864C",
"y. c #7E8076",
"u. c #93A616",
"i. c #8C8E31",
"p. c #92A72A",
"a. c #A9AA2C",
"s. c #A3A325",
"d. c #8E9056",
"f. c #A78A4A",
"g. c #999D6A",
"h. c #84837C",
"j. c #939A79",
"k. c #8D8F6E",
"l. c #B9846D",
"z. c #A98578",
"x. c #BA8674",
"c. c #B18869",
"v. c #99A46A",
"b. c #9AA37C",
"n. c #9CA675",
"m. c #A2B06D",
"M. c #A7BF4E",
"N. c #C38B76",
"B. c #C89479",
"V. c #CC9875",
"C. c #D8AB78",
"Z. c #ABC646",
"A. c #545692",
"S. c #7A7589",
"D. c #6C75B0",
"F. c #5C68AC",
"G. c #857886",
"H. c #8A7C8F",
"J. c #7D829C",
"K. c #7F8AC0",
"L. c #838383",
"P. c #8B8B8B",
"I. c #8A8886",
"U. c #948687",
"Y. c #96988A",
"T. c #949494",
"R. c #9B9B9C",
"E. c #989996",
"W. c #8F8C91",
"Q. c #A79B96",
"!. c #AD9089",
"~. c #9DA387",
"^. c #9EA293",
"/. c #A2A59B",
"(. c #A2A796",
"). c #AEA697",
"_. c #9E9FA1",
"`. c #8F91B6",
"'. c #9EA1A2",
"]. c #A3A4A4",
"[. c #A5A7A9",
"{. c #A6A9AB",
"}. c #AAABAC",
"|. c #A9AAA5",
" X c #ACAEB1",
".X c #A8ABB3",
"XX c #AEB1B3",
"oX c #AFB4B8",
"OX c #B2B4B5",
"+X c #B3B6B9",
"@X c #B6B9BD",
"#X c #BABBBC",
"$X c #B7B8B7",
"%X c #B3B0AA",
"&X c #A09FAB",
"*X c #D79B86",
"=X c #CD9987",
"-X c #DAA589",
";X c #DBA893",
":X c #DDB396",
">X c #E9B798",
",X c #E9B091",
"<X c #CDB8AC",
"1X c #ECBDA3",
"2X c #E39D8B",
"3X c #F4C49E",
"4X c #D9C5B6",
"5X c #F5C7A7",
"6X c #F4C9B1",
"7X c #FBD7B7",
"8X c #F1CFB2",
"9X c #FEE0BF",
"0X c #BABEC2",
"qX c #B5B8C4",
"wX c #A9ABC4",
"eX c #959BC5",
"rX c #C1BBC4",
"tX c #BDC1C5",
"yX c #BFC4C9",
"uX c #C3C3C4",
"iX c #C1C6CB",
"pX c #C4C9CD",
"aX c #CBCCCD",
"sX c #CDC5C9",
"dX c #C6CCD2",
"fX c #C9CED3",
"gX c #CBD1D5",
"hX c #CCD4DA",
"jX c #D3D4D5",
"kX c #D1D6DB",
"lX c #D4DADE",
"zX c #DADBDD",
"xX c #D9CDC7",
"cX c #E8D7C7",
"vX c #F5DCC3",
"bX c #FCE4C8",
"nX c #FDECD5",
"mX c #FCEED9",
"MX c #D6DBE0",
"NX c #DADEE1",
"BX c #DEE1E4",
"VX c #E2E3E5",
"CX c #E7E9EA",
"ZX c #FEF9E9",
/* pixels */
"                                                                                ",
"                                                                                ",
"                                  v.        v.v.                                ",
"                                ~.T.Y.m.  n.Y.T.b.                              ",
"                      n.j.b.b.~./.]./.~.b.^.].]./.~.n.b.n.v.                    ",
"                    n.E.].[.{. X+X@X+X_.T.[.+X@X+X}.{.[.'.Y.m.                  ",
"                  b.(.}.0XiXyXyXiXpXyX{.R.XXyXpXiXiXiXyX@X{.^.n.                ",
"                n./. XyXdXdXyX0X0X0X@X}.]. X@X0X0X0XiXdXdX0X{.^.n.              ",
"              b./.OXiXgXhXdX0X+XOXOX}.[.].{. XOX+X+X0XfXhXgXtX}.^.n.            ",
"            n./.$XjXzXNXlXgXiXyXyX$X{.R.R.]. X#XyXyXpXgXMXBXzXaXXX^.n.          ",
"          v.E.XXaXVXCXVXMXhXgXgXfXiXOXR.T.].+XiXgXgXgXhXMXVXCXVXuX{.Y.          ",
"          n.].yXzXCXVXMXhXhXgXgXgXdX0X].E.}.yXdXgXgXhXhXkXNXCXCXkX@XR.v.        ",
"          ~.}.dXBXCXlXfXgXfXdXyX0X+X{.E.T.R..X@XtXiXdXgXfXfXNXCXMXyX].n.        ",
"        b./.+XdXNXVXaX0XpXpX@X{.R.I.#.6.L.#.#.P.R. X0XdXiX0XjXVXlXpXXX(.n.      ",
"      v.E.}.#XiXkXlXuX$XaXpX}.T.6.4.4.7.z.7.4.4.h.E.OXfXiX$XaXlXgXyX@X{.T.      ",
"      v.R.@X0X+XyXpX#X$XfXaX].6.>.9.N.*X*X=Xx.,.3.I.}.jXaX+X0XpX0X$XyX+XE.v.    ",
"      k.E.0X@X[.}.+X}.}.pXuXT.4.,.l.2X1X1X>X-X9.>.6.R.pXuX{. X+X{.}.0X+XY.d.    ",
"      t.I.oXXXR.R.].R.R.+XOXI.4.9.B.1X7X7X6X>XN.5.4.W.@XXXT.R.].R.R.+X.Xh.t.    ",
"      ) #.].[.T.T.R.I.I.].].z.9.N.;X8XbXbXbX5X-Xx.5.U.|.R.L.T.R.T.T.{.R.o.)     ",
"      S  .T.E.I.P.T.@.+.T.Q.z.l.*X5XbXnXnXnXvX1X=X0.z.Q.I.+.I.T.I.I.R.P._ S     ",
"      S  .W.I. .#.I. ...I.Q.z.N.,X7XmXZXZXZXnX6X-Xl.z.Q.L.| +.L.+.+.P.I._       ",
"        ' h.+.R |  .R R #.G.8.q.-X8XZXZXZXZXmX5X*X9.8.G.+.E |  .R R #.h.'       ",
"          ' R T T T L L [ { { w.x.<XmXZXZXZXnX;Xq.w.{ { E L L T T T R )         ",
"          ( ~ ` ~ L P I Y { } O.8.).nXZXZXZXcX!.3.O.} [ Y I P I ~ ` ~ S         ",
"          ) 4.z.4.I v ^ X.G.T.H.O.!.cXnXnXnX4XG.O.W.W.S...Q I Q 5.z.3.)         ",
"          i.d.z.5.^ ! >.I.T.W.S.{ U.8XnXnXnX4X6.{ G.R.T.6.! ^ ^ 5.c.d.          ",
"            p.<.3.>.>.5.Q.&XS.[ [ U.cXnXnXnX4XG.] [ H..XQ.>.:.>.3.d.a.          ",
"                <.3.9.!.<XwXD.A.A.R.cXmXmXnX4XH.A.A.D.qX<Xx.5.>.d.              ",
"                  X.z.;X4XqX`.D.D.wXcXmXZXnXxX`.D.D.`.0X4X;X7.>.                ",
"                  X.7.=X1X4X0XqXqXsXbXmXmXnXcXsXqXqXrX4X:X=X8.`                 ",
"                  Q ` 9.=X>X8XcXvXvXbXbXbXbXbXvXvX8X6X>XB.5.^ Q                 ",
"                  c J ` 9.=X,X5X5X5X7X7X7X7X7X5X5X1X;XB.5.^ H c                 ",
"                d 3 8 W ^ ,.l.B.-X,X,X,X,X,X,X-X-XB.q.>.^ J 4 3                 ",
"                i 2 7 H w v ;.,.2.9.l.l.l.l.l.1.,.,.! e w H 7 2 y               ",
"            f 3 2 6 K 7 5 1 r e v M ! ! ! ! ! M v e q 1 5 K K 6 , y             ",
"          f 3 2 6 K K K 6 2 > > > > 1 1 q 1 1 > > > 1 5 6 K K K 6 2 y f         ",
"          l 2 6 K K K K K 8 , < < < 1 j k q < < < < , 6 K K P K K 6 2 s         ",
"          b 7 K K K P K K K 6 5 5 5 w A *.N 6 5 5 5 6 K K K K K K K 6 V         ",
"        f b x K K K P P K K K 7 6 6 w N A v 6 6 6 7 K K K K K K K K x b g       ",
"      d 3 p K K P K K K K K K K 6 6 6 q q q 6 6 7 K K K K K K K K K K 6 i       ",
"      l 5 p K P K K K K K K K K 7 6 x N A n 6 6 7 K K K K K K K K K K 7 6 z     ",
"      z p K K K K K 7 7 K K K K 7 6 x A *.N w 6 7 K K K K 7 7 K K K K K 6 V     ",
"    s j 7 K K K K 7 6 7 K K K K K 7 6 j k c 6 7 K K K K K 7 6 7 K K K K 6 j d   ",
"    # 2 7 K K K 6 5 5 6 K K K K K K 6 j k q 6 K K K K K 7 6 5 5 7 K K K 6 , %   ",
"  a # 5 7 K K K 5 < , 6 K K K K K K c A *.N x K K K K K 7 5 , < 6 K K K 6 , #   ",
"  z 5 5 6 K K 7 , : , 6 7 K K K K K x A %.N x K K K K K 7 5 < : 5 7 K p 7 5 6 C ",
"' _ T P 7 7 6 5 , X , 5 7 7 K K K K 7 q j w 6 K K K K 7 6 5 < X , 5 7 7 K L E _ ",
"o.J.L.+.R K 5 , : X , 5 6 7 K K K K x v m c 6 K K K K 7 6 5 < X : , 5 P | #.L.@.",
"k.E.{.R.#.T 6 , X X , 5 6 7 K K K K c A *.N x K K K K 7 6 5 < X : , F R L.R.{.Y.",
"  g.U.I.L.+.| L 5 : , 5 6 7 K K K 7 w v m v w 7 K K K 6 6 5 < < 7 T ..#.L.U.Y.g.",
"  i.>.4.6.U.h. .K < , 5 6 7 K K 7 6 6 q j w 6 6 7 K K 6 6 5 < , I +.I.I.6.3.<.  ",
"  f.2.q.q.5.` Q w : , 5 6 7 K K 7 6 x N %.n 6 6 7 K K 6 6 5 < : w ^ 3.5.z.9.1.  ",
"  f.1.N.0.,.! e 1 O , 5 6 7 K 7 7 6 x A *.N w 6 7 K 7 6 6 5 < O 1 e ! ,.x.l.1.  ",
"  i.,.9.9.,.! t - O , 5 8 6 7 7 6 6 6 j k c 6 6 6 7 7 6 6 5 < O 1 e ;.2.0.1.<.  ",
"    *.<.:.:.%.m y @ : , 5 6 6 6 6 6 6 j k c 6 6 6 6 6 8 5 , : $ a m ;.:.,.<.i.  ",
"    s.=.B B =.  d + X < , 5 5 5 5 5 x A *.N 6 5 8 8 8 5 , : X &     D B B =.s.  ",
"        h D       # X < , , , , , , 2 m A k 2 , , , , , , : X *       h D       ",
"                  % , , < : 0 0 X X X # - $ X X 0 0 X : , , < =                 ",
"                  = , 5 , < < < < X X . . . X : < < < < , 5 , y                 ",
"                  = , 5 5 5 5 5 5 , X X . X : , 5 5 5 5 8 5 , y                 ",
"                  3 5 7 K 7 6 6 5 5 , X X : , 5 6 6 7 7 K 7 , y                 ",
"                  3 5 K K K 7 7 6 5 5 < X , 5 6 6 6 7 K K K 5 i                 ",
"                  j 7 K K K K F 6 6 5 < 0 , 5 6 6 F K K K K 6 l                 ",
"                  c K K K K K K 6 6 5 < 0 , 5 6 7 K K K K K 7 b                 ",
"                  b K K K K K K 6 6 5 < 0 , 5 6 7 K K P K K 7 b                 ",
"                  b 7 K K K K K 6 6 5 < 0 , 5 6 7 K K K K K 7 b                 ",
"                  c 6 7 K K K K 6 6 5 < 0 , 5 6 7 K K K K 7 7 b                 ",
"                  c 7 7 K K K K 6 6 5 < X , 6 7 K K K K K 7 6 b                 ",
"                  c 7 K 7 x K K 6 6 5 < X , 6 K K K K 7 7 K 7 b                 ",
"                  i 6 7 K K K K 6 6 5 < X , 6 K K K K K 7 7 5 j                 ",
"                  3 5 7 K K K K 7 6 5 < X , 6 K K 7 7 K K 6 , y                 ",
"                  % 5 7 7 K K K K 7 5 < X , 6 K K K K 7 K 7 , =                 ",
"                  % 5 7 7 7 K K K x 5 < X , 6 K K K K 7 7 7 , *                 ",
"                  % , 7 K K K K K K 5 < X , 6 K K K K 7 7 6 , *                 ",
"                  % , 7 P L L P K 7 5 : X < 5 K P L P K K 6 < *                 ",
"                  % , K T R R T K 5 < X X X < 6 P T R T L 7 , *                 ",
"                  # < 6 P T T P 6 , X X ; X X , 7 L T T K 5 < *                 ",
"                  + X , 5 K H 5 < X X < 4 ; X X , 6 K F 5 < X *                 ",
"                  + 0 , 5 6 5 , X . X 4 G < . . ; 9 6 5 5 < X *                 ",
"                  % , 5 7 7 6 , X . ; 8 w 9 X . @ 2 7 p 7 5 < *                 ",
"                  % 5 L R T K , X ; 1 b S c 9 X : 5 P T T P , *                 ",
"                  s c R  .| L 6 = 3 n       c 3 3 6 L ....R c s                 ",
"                  e.Z Y [ ] W b                 g v W ] [ E S e.                ",
"                    i.( Q Q Q                       Q Q Q Z p.                  ",
"                                                                                ",
"                                                                                "
};