/* XPM */
static char *left5c1a6601470ae354032d0523d5b28kefZd2l4tgUYoXz[] = {
/* columns rows colors chars-per-pixel */
"40 86 244 2 ",
"   c #000000",
".  c #161616",
"X  c #1D1D1D",
"o  c #191916",
"O  c #221E1D",
"+  c #262C14",
"@  c #23221D",
"#  c #2A2D1B",
"$  c #282B19",
"%  c #2D321B",
"&  c #2C3215",
"*  c #333B15",
"=  c #343A1B",
"-  c #36281E",
";  c #231E25",
":  c #242424",
">  c #2B2522",
",  c #2C2B2B",
"<  c #292628",
"1  c #352B28",
"2  c #33332D",
"3  c #373926",
"4  c #322B36",
"5  c #343434",
"6  c #3B3B35",
"7  c #3B3B3B",
"8  c #393437",
"9  c #2E2C2D",
"0  c #1F1E1E",
"q  c #44362C",
"w  c #443C36",
"e  c #573C33",
"r  c #513428",
"t  c #573D29",
"y  c #3C4419",
"u  c #3D4B0F",
"i  c #3E4429",
"p  c #3E4036",
"a  c #444D15",
"s  c #4A5618",
"d  c #4F5A15",
"f  c #586818",
"g  c #5F7017",
"h  c #6C6D1B",
"j  c #484729",
"k  c #554A2A",
"l  c #4B5426",
"z  c #555928",
"x  c #42413B",
"c  c #494735",
"v  c #574836",
"b  c #4E5431",
"n  c #585738",
"m  c #68592D",
"M  c #66483B",
"N  c #665A36",
"B  c #724F34",
"V  c #576326",
"C  c #5D6434",
"Z  c #64653A",
"A  c #786738",
"S  c #68733A",
"D  c #706C29",
"F  c #3D3542",
"G  c #3B2D43",
"H  c #443947",
"J  c #4D3C51",
"K  c #444444",
"L  c #4C4C4C",
"P  c #4B4645",
"I  c #554B49",
"U  c #5A5449",
"Y  c #564A57",
"T  c #545454",
"R  c #5B5B5B",
"E  c #5B5757",
"W  c #4E464D",
"Q  c #65574A",
"!  c #785448",
"~  c #655957",
"^  c #72524E",
"/  c #5F6252",
"(  c #6A6649",
")  c #747948",
"_  c #676658",
"`  c #776659",
"'  c #717551",
"]  c #5B4966",
"[  c #5B526B",
"{  c #665569",
"}  c #6B596D",
"|  c #646464",
" . c #6C6C6B",
".. c #6A6765",
"X. c #756A68",
"o. c #72746A",
"O. c #776676",
"+. c #747474",
"@. c #7B7B7B",
"#. c #787878",
"$. c #6D6C6E",
"%. c #836B35",
"&. c #88743B",
"*. c #947C37",
"=. c #847328",
"-. c #845F3F",
";. c #865B4A",
":. c #8A5E51",
">. c #896659",
",. c #976957",
"<. c #927050",
"1. c #A6755C",
"2. c #A16D5C",
"3. c #866B65",
"4. c #867269",
"5. c #98756A",
"6. c #877A77",
"7. c #9A7674",
"8. c #946E6E",
"9. c #A87766",
"0. c #B47C6A",
"q. c #AA7C73",
"w. c #805B64",
"e. c #798D14",
"r. c #798338",
"t. c #7A864C",
"y. c #7E8076",
"u. c #93A616",
"i. c #8C8E31",
"p. c #92A72A",
"a. c #A9AA2C",
"s. c #A3A325",
"d. c #8E9056",
"f. c #A78A4A",
"g. c #999D6A",
"h. c #84837C",
"j. c #939A79",
"k. c #8D8F6E",
"l. c #B9846D",
"z. c #A98578",
"x. c #BA8674",
"c. c #B18869",
"v. c #99A46A",
"b. c #9AA37C",
"n. c #9CA675",
"m. c #A2B06D",
"M. c #A7BF4E",
"N. c #C38B76",
"B. c #C89479",
"V. c #CC9875",
"C. c #D8AB78",
"Z. c #ABC646",
"A. c #545692",
"S. c #7A7589",
"D. c #6C75B0",
"F. c #5C68AC",
"G. c #857886",
"H. c #8A7C8F",
"J. c #7D829C",
"K. c #7F8AC0",
"L. c #838383",
"P. c #8B8B8B",
"I. c #8A8886",
"U. c #948687",
"Y. c #96988A",
"T. c #949494",
"R. c #9B9B9C",
"E. c #989996",
"W. c #8F8C91",
"Q. c #A79B96",
"!. c #AD9089",
"~. c #9DA387",
"^. c #9EA293",
"/. c #A2A59B",
"(. c #A2A796",
"). c #AEA697",
"_. c #9E9FA1",
"`. c #8F91B6",
"'. c #9EA1A2",
"]. c #A3A4A4",
"[. c #A5A7A9",
"{. c #A6A9AB",
"}. c #AAABAC",
"|. c #A9AAA5",
" X c #ACAEB1",
".X c #A8ABB3",
"XX c #AEB1B3",
"oX c #AFB4B8",
"OX c #B2B4B5",
"+X c #B3B6B9",
"@X c #B6B9BD",
"#X c #BABBBC",
"$X c #B7B8B7",
"%X c #B3B0AA",
"&X c #A09FAB",
"*X c #D79B86",
"=X c #CD9987",
"-X c #DAA589",
";X c #DBA893",
":X c #DDB396",
">X c #E9B798",
",X c #E9B091",
"<X c #CDB8AC",
"1X c #ECBDA3",
"2X c #E39D8B",
"3X c #F4C49E",
"4X c #D9C5B6",
"5X c #F5C7A7",
"6X c #F4C9B1",
"7X c #FBD7B7",
"8X c #F1CFB2",
"9X c #FEE0BF",
"0X c #BABEC2",
"qX c #B5B8C4",
"wX c #A9ABC4",
"eX c #959BC5",
"rX c #C1BBC4",
"tX c #BDC1C5",
"yX c #BFC4C9",
"uX c #C3C3C4",
"iX c #C1C6CB",
"pX c #C4C9CD",
"aX c #CBCCCD",
"sX c #CDC5C9",
"dX c #C6CCD2",
"fX c #C9CED3",
"gX c #CBD1D5",
"hX c #CCD4DA",
"jX c #D3D4D5",
"kX c #D1D6DB",
"lX c #D4DADE",
"zX c #DADBDD",
"xX c #D9CDC7",
"cX c #E8D7C7",
"vX c #F5DCC3",
"bX c #FCE4C8",
"nX c #FDECD5",
"mX c #FCEED9",
"MX c #D6DBE0",
"NX c #DADEE1",
"BX c #DEE1E4",
"VX c #E2E3E5",
"CX c #E7E9EA",
"ZX c #FEF9E9",
/* pixels */
"                                                                                ",
"                                                                                ",
"                                                                                ",
"                              s.F.F.F.F.F.F.a.a.a.a.k.                          ",
"                          j.k.Y.`.}.}.`.~.J.S.S.S.G.U.k.j.                      ",
"                      k.F.U.).{.wXtXqX}.~.J.G.G.H./.XX).Y.F.k.                  ",
"                    k.U.(.|.qXrXuXwX`.R.J.J.~.`.6XiXsXsXeX(.U.j.                ",
"                  s.A.H.`.6XqX6XwX6X(.Q.Q.^.{.wXpXvXnXnXgXeXXXU.l.              ",
"                s.S.A.G.Q.(.^.~.`.|.6XqXqXwXtXiXaXdXfXvXgXgXyXXXU.k.            ",
"              T.U.J.J.J.J.J.J.H.(.6XuXaXaXaXaXaXaXaXaXaXfXcXfXrX(.U.l.          ",
"            T.XX].~.H.H.J.G.H.(.6XuXaXaXaXaXaXaXaXaXaXaXaXfXcXgXyX).F.j.        ",
"          T.)./.^.G.S.S.S.A.~. XuXaXaXaXaXaXaXfXcXbXcXfXfXcXnXMXsX{.J.s.        ",
"        k.XX].H.Z.@.o.X.$.Z./.wXiXaXpXaXaXdXfXcXMXmXMXfXdXnXmXmXsX{.J.s.        ",
"        F.^./.S.X.W Q Q W X.G.|.uXuXrXtXfXbXbXbXbXMXnXiXiXnXmXmXsX{.~.U.k.      ",
"        F.J.J.$...E U Y Y / Z.(.tXiX XeXgXmXmXcXdXcXgXeX XsXnXbXyX(.~.Y.F.j.    ",
"        a.A.S.@./ ~ ^ :.( ( p.(.iXsX XeXgXmXmXsXeXiXpX X{.|.eXeX{.H.H.~.G.s.    ",
"        a.S.Z.%.O.>.,.8.8.,.D.XXsXgX|.|.fXMXnXyX|.wXtX{.~./.(./.H.G.J.H.K.s.    ",
"        a.Z.#.%.2.g.v.$X+Xc.L.XXsXsX(./.tXfXdXwX{.6XwX/.J.~./.~.J.A.J.J.Z.u.    ",
"        w.@.X.o.2.@X*X<X:X*X%X). X|.J.J.}.rXwX`.R./.`.H.G.J.H.H.G.Z.A.G.$.'     ",
"        ` Q Q E O.@X=X3X1X=X%XJ.J.G.#.Z.~.{.(.G.#.S.G.A.S.A.A.A.Z.$.$.Z.o.`     ",
"          F F Y O.@X:XkX2X4X_.D.S.#.o.@.J./.~.Z.o.@.Z.#.#.Z.S.Z.$...o.X.E v     ",
"              { 2.@X:XkXlX3X_.A.V.$.W o.G.~.H.$.W X.#.@.@.#.Z.Z.X.Q Q W b c     ",
"              { 2.@X:XkXzXjXL.+. .| E ..Z.J.G.@.W o.$.o.W X.$.@.W 7 7 b A       ",
"              <.3.OX:XkXkX,XG. .} R R W $.Z.Z.o.E ..X.W P Q ..W P 5 ; 4         ",
"              u.9.$X<X3X;XL.K.V.+.| / / o.@.X.E 7 P Q L 5 7 L P L 5 > *         ",
"              i.c.=X2X3XoX+.V.J.G.6.[ ( O.4.O.Y q U Y 6 ; > 5 L L 7 a g         ",
"              n.*X3XzXjXL.| | M.E.L.4.,.9.g.h.>.^ ,.5.n > 5 7 L 7 6 c           ",
"              b.:XlXxXjXoX .} B.E..Xh.f.v.#X+X9.,.g.g.~ < 7 L s z g             ",
"              b.=XkXzXjX[.N.B.N.8XeX%X$X&X&X#Xx.8.x.g.! < 7 7 6 c               ",
"              n.$X4XlXlXyX9XW.9X7XhX3X<X:X=X&Xx.8.8.8.m > 3 z c                 ",
"              y.f.&X1XlXjXhXhXhXjXlXlX2X3X<X=Xx.,.;.) 0 ; : g                   ",
"                y.f.$X<X3X2X2X2X2X2X2X3X4X=X$X8.;.B 0 1 = g                     ",
"                t.y.f.+X*X-X=X>X>X>X>X=X$Xx.8.:.B 0 , # f                       ",
"                  t.i.5.5.5.h.g.v.v.x.h.,.( ! m 0 1 ; : c                       ",
"                    r.<.~ b m ^ ,.,.;.B q < < , ; + ; : c                       ",
"                  r.e.i.{ b 6 0 w w 0 0 5 5 > ; o o o # f                       ",
"                  F D e.<.n 8 < > : ; > 7 7 7 > o O O O y                       ",
"                  S n x n L 7 7 7 5 ; ; 5 7 7 > o O O O t                       ",
"                  Z n x n L L L L 7 ; ; 5 7 L 5 ; o o o f                       ",
"                  F S =.D U I L L 7 ; ; 5 7 L 7 > ; o : c                       ",
"                  S V *.D U L L 7 5 > > 5 L L 7 5 ; o > z                       ",
"                  Z n z b L L 7 > ; > 5 L L L 7 5 ; o > 3 *                     ",
"                  S M V M I L 7 > ; > 7 L L L 7 5 ; o > > # y                   ",
"                  F ` e.*.U L 7 > ; 5 7 L L L 7 5 ; o > > ; y                   ",
"                  S M D V I 7 < > > 7 L L L L 7 5 ; o > > ; y                   ",
"                  Z n z b b > ; > 5 L L L L L 7 5 ; ; > 5 : d                   ",
"                  S V *.D b > ; > 7 L L L L L L 5 ; ; 5 7 3 c                   ",
"                  S S =.*.n > ; > 7 L L L L L 7 5 ; ; 5 H 7 v                   ",
"                  Z n x n b > ; > 7 L L L L 7 7 5 ; ; 5 L 7 a g                 ",
"                  Z n x b b > ; > 7 7 L L L 7 5 > > > 7 L 7 5 $                 ",
"                  F S =.D U 5 > 5 &.L L L 7 7 > ; > 7 L L L 5 $                 ",
"                  S V *.D U P E ..%.%.X...W I 9 ; 5 L L L L 5 $ d               ",
"                  Z b z b P X.A.Q.(./.R.A.$.Q 7 ; 5 L L L L 5 $ d               ",
"                  S M V V U O.d.L.L.A.$.o.W L 5 > 5 L L L H 5 $ d               ",
"                  G D e.*.U ! >.8.5./ b 6 < ; > 5 7 L L 7 8 > $ d               ",
"                    e.G x 6 w ;.8.f.8.>.! 0 # ; 5 5 > > > ; ; $ d               ",
"                      t # # 0 ) 8.c.v.f.>.w , ; > ; o o o o o $ d               ",
"                      & O o # 0 ^ ,.1.>.m 1 + o ; o O O O O O $ d               ",
"                      * o O O # 0 B B w < ; + o o o o o o o o $ d               ",
"                      z ; o O o # , 1 , > > > > > > > > > > ; $ d               ",
"                      M 5 ; ; @ o O O o > 5 5 7 7 7 7 7 7 7 > $ d               ",
"                      Y J 5 5 > + O O o o > 5 7 L 7 7 H L 7 > $ h               ",
"                    ' / T 7 7 5 ; O O O o ; 5 7 L L L L L 7 5 > f               ",
"                    / R K 7 7 5 ; O O O O ; 5 7 L L L L 7 L 7 5 2 y             ",
"                  [ R K J 7 8 5 ; O O O O ; 5 7 L L L L L 7 7 7 > %             ",
"                  [ R J 7 7 8 5 ; O O X $ 2 3 7 L L L L L 7 7 7 > % g           ",
"                  { R H 7 7 8 5 ; O X % k g 4 5 L L L L L L L 7 8 4 u           ",
"                  Y J 7 7 7 8 5 ; @ %       * > 7 L L L L L L L 7 5 : i         ",
"                f 3 9 8 7 7 7 5 ; &         & > 7 L L I I L L s 7 5 > &         ",
"              f $ ; > 5 7 7 8 5 ; t         & ; 5 L L I L L L s 7 5 > *         ",
"            ` b 5 9 5 8 7 7 7 5 ; t         & : 5 7 L L L L L L b 7 5 z         ",
"          { R T J J J J H 7 7 5 ; t           u 3 7 L L L L L L L 7 7 z j       ",
"        { / R R R R R T J 7 5 5 # t           j 2 5 L I I I L I L L 7 8 4       ",
"        / R T T K K K K J 8 5 > o t             = 7 P P P L L L L L 7 5 ; i     ",
"        ~ I H 7 8 8 8 8 8 5 ; # $ d             * 7 E E P P L L 7 7 8 5 ; i     ",
"          M 6 > > > > > > ; o $ h               = 5 P E Q Q E P L 7 3 ; @ t     ",
"            c u = & & & & & % y                 = 5 L P E E Q E L 5 ; # $ d     ",
"                                              f 4 L P 7 5 5 5 5 > ; o $ h       ",
"                                            z 5 L Q W L > ; ; o o o $ d         ",
"                                            n I Q o.X.W L 5 ; o O $ d           ",
"                                            F Y W | ..Q L 5 4 i t d             ",
"                                              0.Y L 8 3 2 : g                   ",
"                                                G v f d d                       ",
"                                                                                ",
"                                                                                ",
"                                                                                "
};