/* XPM */
static char *leftdb1863d84b5fe6617ccfe478855f5st6e5ERvaIew4rX[] = {
/* columns rows colors chars-per-pixel */
"40 86 241 2 ",
"   c #000000",
".  c #161616",
"X  c #1A1B15",
"o  c #1C1C1C",
"O  c #181716",
"+  c #221E1D",
"@  c #1E2117",
"#  c #23231D",
"$  c #262917",
"%  c #2D3316",
"&  c #333C14",
"*  c #323A1B",
"=  c #32351A",
"-  c #37281F",
";  c #232323",
":  c #2B2623",
">  c #2B2A24",
",  c #2C2C2B",
"<  c #272922",
"1  c #332A27",
"2  c #2D3023",
"3  c #33332C",
"4  c #383827",
"5  c #343434",
"6  c #3C3B35",
"7  c #3B3B3B",
"8  c #393637",
"9  c #322D31",
"0  c #1F1F20",
"q  c #45382C",
"w  c #54362D",
"e  c #413E3B",
"r  c #443B34",
"t  c #513B34",
"y  c #613C36",
"u  c #3E490F",
"i  c #3A4412",
"p  c #3E4912",
"a  c #3A431B",
"s  c #3D4329",
"d  c #3E4038",
"f  c #414C12",
"g  c #454B1B",
"h  c #495517",
"j  c #535C1B",
"k  c #47530F",
"l  c #576716",
"z  c #4F600F",
"x  c #484629",
"c  c #564A2A",
"v  c #4D5528",
"b  c #555A28",
"n  c #43423B",
"m  c #484636",
"M  c #574836",
"N  c #4D5335",
"B  c #595535",
"V  c #68582A",
"C  c #674639",
"Z  c #685A35",
"A  c #6F4F34",
"S  c #5B652B",
"D  c #5B6533",
"F  c #766535",
"G  c #69743B",
"H  c #6E6B2E",
"J  c #6C651C",
"K  c #3F3A41",
"L  c #453C49",
"P  c #4C3D52",
"I  c #444444",
"U  c #4C4C4C",
"Y  c #4B4745",
"T  c #574A48",
"R  c #58534A",
"E  c #544858",
"W  c #545353",
"Q  c #5C5C5C",
"!  c #5B5854",
"~  c #4E4153",
"^  c #674B44",
"/  c #65584A",
"(  c #785649",
")  c #685B56",
"_  c #795D55",
"`  c #754F41",
"'  c #5E624B",
"]  c #656657",
"[  c #796659",
"{  c #6F7349",
"}  c #594C6B",
"|  c #63566A",
" . c #68536C",
".. c #636363",
"X. c #6C6C6C",
"o. c #696867",
"O. c #766A67",
"+. c #766778",
"@. c #737373",
"#. c #7C7C7C",
"$. c #787676",
"%. c #717369",
"&. c #5F6061",
"*. c #887236",
"=. c #937A37",
"-. c #856F2F",
";. c #826B2C",
":. c #865A49",
">. c #825D51",
",. c #8A6759",
"<. c #976A58",
"1. c #8F6E4F",
"2. c #A5725B",
"3. c #886A65",
"4. c #897368",
"5. c #997768",
"6. c #887A78",
"7. c #937371",
"8. c #A87868",
"9. c #B47C6A",
"0. c #AC7C75",
"q. c #845F65",
"w. c #79844F",
"e. c #7D8170",
"r. c #938D32",
"t. c #A9AB27",
"y. c #9C9A2D",
"u. c #8E8F51",
"i. c #A48A45",
"p. c #AD9054",
"a. c #959D77",
"s. c #8D8F72",
"d. c #B9856B",
"f. c #AA8578",
"g. c #B78675",
"h. c #B48E6E",
"j. c #99A56A",
"k. c #9BA477",
"l. c #A2B068",
"z. c #A4B65D",
"x. c #C48B75",
"c. c #C99679",
"v. c #CE9679",
"b. c #D7AE6C",
"n. c #545590",
"m. c #756C8A",
"M. c #6D76AF",
"N. c #545EA3",
"B. c #847B8A",
"V. c #7C83AA",
"C. c #848484",
"Z. c #8B8C8C",
"A. c #8A8985",
"S. c #968A8A",
"D. c #969B87",
"F. c #8C8A92",
"G. c #939494",
"H. c #9B9B9B",
"J. c #989898",
"K. c #918E90",
"L. c #A59998",
"P. c #A88F8C",
"I. c #9CA383",
"U. c #9DA28C",
"Y. c #9EA198",
"T. c #A2A49C",
"R. c #A2A595",
"E. c #AEA991",
"W. c #9C9CA2",
"Q. c #858BB6",
"!. c #9FA1A3",
"~. c #A3A4A4",
"^. c #A4A6A9",
"/. c #A6A9AA",
"(. c #AAABAC",
"). c #A9A9A4",
"_. c #ABAEB1",
"`. c #A4A3B7",
"'. c #AEB1B4",
"]. c #AFB3B8",
"[. c #B2B3B5",
"{. c #B3B6B9",
"}. c #B6B9BD",
"|. c #BABBBC",
" X c #B9B7B6",
".X c #B0AFAB",
"XX c #CA9685",
"oX c #D59A84",
"OX c #DAA588",
"+X c #D7AD94",
"@X c #E4AA8B",
"#X c #E4AB94",
"$X c #E9B798",
"%X c #EEB997",
"&X c #CBB8AD",
"*X c #EFBDA5",
"=X c #E39D8A",
"-X c #D6C2B6",
";X c #D3C1B3",
":X c #F6C8A8",
">X c #FDD4AF",
",X c #F9D7B9",
"<X c #ECCCB2",
"1X c #F3C29B",
"2X c #939AC2",
"3X c #BABEC2",
"4X c #B7B9C2",
"5X c #A9ABC5",
"6X c #9AA1C6",
"7X c #C4BDC7",
"8X c #BDC1C5",
"9X c #BEC4C9",
"0X c #C3C3C4",
"qX c #C1C6CB",
"wX c #C4C9CD",
"eX c #CACBCC",
"rX c #CEC3C5",
"tX c #C6CCD2",
"yX c #C9CED3",
"uX c #CBD1D6",
"iX c #CCD4DA",
"pX c #D3D4D4",
"aX c #D2D6DA",
"sX c #D4D9DE",
"dX c #DADCDD",
"fX c #DACEC9",
"gX c #E8D8C7",
"hX c #F6DCC3",
"jX c #EEDFD0",
"kX c #FCE4C7",
"lX c #FDECD3",
"zX c #F7E7D5",
"xX c #FCEFD9",
"cX c #DADEE1",
"vX c #D6DCE0",
"bX c #DEE1E5",
"nX c #E2E3E5",
"mX c #EAEBEC",
"MX c #E4E7E9",
"NX c #FEF7E6",
"BX c #FDFBEE",
/* pixels */
"                                                                                ",
"                                                                                ",
"                                                                                ",
"                              D.D.D.D.D.D.D.s.s.s.D.j.                          ",
"                        j.j.I.~._.{.].(.H.G.A.A.Z.G.U.k.j.                      ",
"                      a.D.Y.).{.9XwX8X[.^.J.G.G.H.(..X).Y.D.j.                  ",
"                    k.T._.}.8XqXyX9X_.W.J.J.~._.3XyXpXpX0X).U.j.                ",
"                  a.G.~.[.3X3X3X9X3X/.!.!./.{.9XuXcXMXnXaX0X(.U.l.              ",
"                a.A.Z.G.~.(.^.^._.}.3X8X8X9XwXyXiXsXsXvXdXaX0X(.U.j.            ",
"              E.H.G.G.G.J.J.J.H._.3XtXuXuXuXuXuXiXiXiXiXsXcXaX0X(.U.l.          ",
"            R.[.'.~.H.J.G.G.H._.8XtXuXuXiXiXiXiXiXiXiXiXiXsXcXdX0X).D.j.        ",
"          E.(._.!.G.A.A.A.G./.3XtXuXiXiXiXiXiXvXcXbXcXsXsXcXMXMXeX(.G.a.        ",
"        U.[.'.J.C.@.o.X.@.A._.qXuXuXuXiXiXaXsXbXMXmXMXsXsXMXmXmXeX(.J.a.        ",
"        D./.^.C.o.Q W W Q @.H.3XtXtXqXeXcXbXbXbXbXmXnXtXyXMXmXmXeX[.~.U.j.      ",
"      j.D.H.G.@.) R T R R ) A.[.wXwX|.0XnXmXmXdXaXbXdX0X3XpXnXdX0X(.^.T.D.j.    ",
"      j.A.Z.C.X.) / ( >.( _ A.[.uXpX|.0XnXmXmXpX0XyXyX}.[.|.0X&X(.H.~.~.G.j.    ",
"      j.A.A.m.X.[ ,.2.9.2.5.P. XpXpX}.|.dXMXnXwX XqXqX'.^.(.(.(.H.G.J.H.Z.j.    ",
"      j.s.C.#.X.4.g.v.OXoXXXE. XpXeX(.(.tXsXaX3X[.8X3X^.J.~.(.^.J.Z.J.J.C.u.    ",
"      u.%.@.X...7.XX%X:X%X#XE..X|. XG.J.}.qX8X(.!._._.J.G.J.H.H.Z.C.Z.Z.@.w.    ",
"        ' ! ! ! 3.XX*X,X>X$XE.J.J.G.#.C.^.[.(.K.#.Z.G.Z.A.Z.K.Z.#.@.#.#...G     ",
"        G G G ! 3.XX*XhX,X<XE.S.A.#.o.$.H.(.~.#.o.@.C.#.#.C.A.C.@...o.o.W D     ",
"              { 3.XX*XhXkX<XE.A.B.@.&.X.G.^.H.@.Q @.#.@.@.#.C.#...W ! ! m S     ",
"              { 7.XX*XkXlX<XL.+.| | W ..A.J.Z.X.Q X.#.....X.@.@.W 7 7 m S       ",
"              1.7.oX:XhXgX&XS. .} E U ) #.C.#...W ..X.W U Q ..Q I , : a         ",
"              i.f.#X:X,X&XP.F.B.+.| / ) O.@.X.U 7 W W I 5 6 I U I 5 > a         ",
"              p.XX1X,X<XL.+.B.W.G.6._ _ O.4.O.T r T R 5 : , 5 I I 6 s           ",
"              b.#XhXlXgXP. . .B.W.J.3.<.f.g.f.,.( 5.4.m , 5 7 I 6 s S           ",
"              b.*XzXxXgXL.| } m.`.[.f.d.oX=XoX9.2.c.g.T 9 6 I d x j             ",
"              b.*XhXlXgX`.M.N.M.5X-X+XOX@X@XoXd.9.x.d.T , 6 6 4 l               ",
"              b.OX<XkXjX7X2X2X6XqXgX<X:X*X%X@Xx.2.9.<.t , 5 x j                 ",
"              i.h.$X>XkXgXfXfXfXgXkXkX,X,X:X#Xd.:.:.` q < 2 j                   ",
"              t.i.c.+X:X,X,X,X,X,X,X,X,X:X$XoX2.( C w 1 * h                     ",
"                t.i.d.oX#X$X%X1X1X1X1X$XOXx.8.:.C q : < g                       ",
"                  t.i.5.5.5.d.x.v.v.x.8.,.( ^ M q 1 ; > v                       ",
"                    y.) L r M ( <.<.:.C r 9 1 > < : : 3 b                       ",
"                      N 9 ; 1 q t t q q 8 5 , , , 5 5 , h                       ",
"                      N q 4 1 > > > > 5 7 7 6 5 5 5 5 < f                       ",
"                      B F -.B 5 5 6 6 6 7 7 6 6 5 , : # u                       ",
"                    H B F *.Z n e e 7 8 6 6 7 7 8 , ; @ u                       ",
"                    N n x c m 7 I 7 , , 5 7 I I 7 5 , # p                       ",
"                  v 6 6 c c m 7 I 6 : ; 5 7 I I I 7 5 ; &                       ",
"                  b 6 n F =.Z n I 6 : ; 5 7 I I I 7 5 ; $ &                     ",
"                  b 6 e Z F B n I 8 ; ; 5 7 I I I 7 5 , ; $                     ",
"                  N 6 6 q x r 7 I 6 : ; 5 7 I I I 7 6 5 , $ f                   ",
"                S m 7 n Z F M 7 I 7 9 : , 5 7 I I I 7 6 , $ f                   ",
"              S m n n m F =.Z n I I 8 , ; > 8 e I I I 6 , $ f                   ",
"            S m 7 I I e M B m 7 I I 6 , o : 5 I I I I 6 , $ f                   ",
"            / n 7 I I 7 x x r 7 I I 6 , o : 5 I I I I 6 , # p                   ",
"          h.5.R e I I n F *.Z n I I 6 , 0 : 5 K I I I 7 , # $ k                 ",
"          OXh.) n I n n F *.Z n I I 7 5 : : , 6 I I I 7 , o O $                 ",
"          OXh.) n I I 7 x c m 7 I I I 7 5 , : 5 7 I I I 5 : o $                 ",
"          h.f./ e I d e M c m 7 I I I I 5 , : I Q X.@.X...W I m                 ",
"          i.1.B n n 7 m F =.Z n I I I I 6 , > ! A.~.(.^.H.A.X.]                 ",
"                S m 5 3 c F B e 7 I I I 6 5 5 / 6.L.L.A.$.o.Q R                 ",
"                  b 4 # - q q 6 6 7 I I 6 5 8 M _ 5.5.) n 8 1 =                 ",
"                    j = c F B 7 6 6 7 7 6 8 8 8 M <.d.8.,.^ q =                 ",
"                      j H =.Z 6 5 5 5 5 5 5 5 < q ,.x.v.d.,.A h                 ",
"                        J b 4 : ; ; ; ; ; ; ; o : ` <.2.,.C V                   ",
"                          % # ; 0 0 ; ; ; ; o O + q C C t - k                   ",
"                          % : , , , , , , , , ; o # 1 1 # $ f                   ",
"                        h 2 , 5 6 6 6 6 6 6 5 : O . O O O X u                   ",
"                      h 4 3 5 6 I I 7 7 I 7 5 : O . . . . O $ i                 ",
"                      % , 6 7 7 I I K 7 7 5 , ; O . O o o O . $                 ",
"                      * , 7 I I K 7 I I 6 , o O . . o , , o O $                 ",
"                      s 8 I I I I e K 7 5 , O . . . o , 5 , ; $                 ",
"                      x 7 I Y I I I 7 6 5 : O . . O ; 9 5 5 , $ z               ",
"                    v n 7 I Y Y I I I 5 , o O . O ; , 5 6 5 , # &               ",
"                  g 3 6 I I Y I I I 7 9 # $ % $ # 9 8 6 6 5 , o X &             ",
"                  v 5 d I I I I I 8 , ; $ p   f < 8 L K 6 5 , o . %             ",
"                  N 7 I I I I I 7 5 : o $       g e L L K 6 , ; O $ z           ",
"              l x d d I I I I I I 7 5 : %         v 8 L P 7 5 , ; @ %           ",
"              h 3 6 I I I I I I I 7 6 , %         v 7 P ~ L 6 5 : O O &         ",
"              b 7 I I I I I I I 7 6 5 , %       B Y P E ~ L 6 5 , O . &         ",
"              N I U U U I I I I d 6 3 s         6 K P ~ L K 6 5 , O . &         ",
"            * 6 I W W U U I I 7 7 5 > f         a 3 8 7 8 5 5 5 : o @ i         ",
"          p $ 5 I Q Q W W W I 7 7 5 < f         l a > , , , , : ; $ p           ",
"          f < 5 I W W W W W I 6 5 3 *               & & & & & & % i             ",
"        j s 5 I Y 6 5 5 5 5 6 5 , a                                             ",
"        4 6 U Q W 5 : ; o o , , # i                                             ",
"        I U Q X.o.W 7 , ; O o @ @ p                                             ",
"        { ! Q ..Q U 7 9 ; O O $ &                                               ",
"        y.{ U e 6 3 > < # @ X &                                                 ",
"            D v f f f u u u u                                                   ",
"                                                                                ",
"                                                                                ",
"                                                                                "
};