/* XPM */
static char *left5c2a6601470ae354032d0523d5b28kefZd2l4tgUYoXz[] = {
/* columns rows colors chars-per-pixel */
"40 86 244 2 ",
"   c #000000",
".  c #161616",
"X  c #1D1D1D",
"o  c #191916",
"O  c #221E1D",
"+  c #262C14",
"@  c #23221D",
"#  c #2A2D1B",
"$  c #282B19",
"%  c #2D321B",
"&  c #2C3215",
"*  c #333B15",
"=  c #343A1B",
"-  c #36281E",
";  c #231E25",
":  c #242424",
">  c #2B2522",
",  c #2C2B2B",
"<  c #292628",
"1  c #352B28",
"2  c #33332D",
"3  c #373926",
"4  c #322B36",
"5  c #343434",
"6  c #3B3B35",
"7  c #3B3B3B",
"8  c #393437",
"9  c #2E2C2D",
"0  c #1F1E1E",
"q  c #44362C",
"w  c #443C36",
"e  c #573C33",
"r  c #513428",
"t  c #573D29",
"y  c #3C4419",
"u  c #3D4B0F",
"i  c #3E4429",
"p  c #3E4036",
"a  c #444D15",
"s  c #4A5618",
"d  c #4F5A15",
"f  c #586818",
"g  c #5F7017",
"h  c #6C6D1B",
"j  c #484729",
"k  c #554A2A",
"l  c #4B5426",
"z  c #555928",
"x  c #42413B",
"c  c #494735",
"v  c #574836",
"b  c #4E5431",
"n  c #585738",
"m  c #68592D",
"M  c #66483B",
"N  c #665A36",
"B  c #724F34",
"V  c #576326",
"C  c #5D6434",
"Z  c #64653A",
"A  c #786738",
"S  c #68733A",
"D  c #706C29",
"F  c #3D3542",
"G  c #3B2D43",
"H  c #443947",
"J  c #4D3C51",
"K  c #444444",
"L  c #4C4C4C",
"P  c #4B4645",
"I  c #554B49",
"U  c #5A5449",
"Y  c #564A57",
"T  c #545454",
"R  c #5B5B5B",
"E  c #5B5757",
"W  c #4E464D",
"Q  c #65574A",
"!  c #785448",
"~  c #655957",
"^  c #72524E",
"/  c #5F6252",
"(  c #6A6649",
")  c #747948",
"_  c #676658",
"`  c #776659",
"'  c #717551",
"]  c #5B4966",
"[  c #5B526B",
"{  c #665569",
"}  c #6B596D",
"|  c #646464",
" . c #6C6C6B",
".. c #6A6765",
"X. c #756A68",
"o. c #72746A",
"O. c #776676",
"+. c #747474",
"@. c #7B7B7B",
"#. c #787878",
"$. c #6D6C6E",
"%. c #836B35",
"&. c #88743B",
"*. c #947C37",
"=. c #847328",
"-. c #845F3F",
";. c #865B4A",
":. c #8A5E51",
">. c #896659",
",. c #976957",
"<. c #927050",
"1. c #A6755C",
"2. c #A16D5C",
"3. c #866B65",
"4. c #867269",
"5. c #98756A",
"6. c #877A77",
"7. c #9A7674",
"8. c #946E6E",
"9. c #A87766",
"0. c #B47C6A",
"q. c #AA7C73",
"w. c #805B64",
"e. c #798D14",
"r. c #798338",
"t. c #7A864C",
"y. c #7E8076",
"u. c #93A616",
"i. c #8C8E31",
"p. c #92A72A",
"a. c #A9AA2C",
"s. c #A3A325",
"d. c #8E9056",
"f. c #A78A4A",
"g. c #999D6A",
"h. c #84837C",
"j. c #939A79",
"k. c #8D8F6E",
"l. c #B9846D",
"z. c #A98578",
"x. c #BA8674",
"c. c #B18869",
"v. c #99A46A",
"b. c #9AA37C",
"n. c #9CA675",
"m. c #A2B06D",
"M. c #A7BF4E",
"N. c #C38B76",
"B. c #C89479",
"V. c #CC9875",
"C. c #D8AB78",
"Z. c #ABC646",
"A. c #545692",
"S. c #7A7589",
"D. c #6C75B0",
"F. c #5C68AC",
"G. c #857886",
"H. c #8A7C8F",
"J. c #7D829C",
"K. c #7F8AC0",
"L. c #838383",
"P. c #8B8B8B",
"I. c #8A8886",
"U. c #948687",
"Y. c #96988A",
"T. c #949494",
"R. c #9B9B9C",
"E. c #989996",
"W. c #8F8C91",
"Q. c #A79B96",
"!. c #AD9089",
"~. c #9DA387",
"^. c #9EA293",
"/. c #A2A59B",
"(. c #A2A796",
"). c #AEA697",
"_. c #9E9FA1",
"`. c #8F91B6",
"'. c #9EA1A2",
"]. c #A3A4A4",
"[. c #A5A7A9",
"{. c #A6A9AB",
"}. c #AAABAC",
"|. c #A9AAA5",
" X c #ACAEB1",
".X c #A8ABB3",
"XX c #AEB1B3",
"oX c #AFB4B8",
"OX c #B2B4B5",
"+X c #B3B6B9",
"@X c #B6B9BD",
"#X c #BABBBC",
"$X c #B7B8B7",
"%X c #B3B0AA",
"&X c #A09FAB",
"*X c #D79B86",
"=X c #CD9987",
"-X c #DAA589",
";X c #DBA893",
":X c #DDB396",
">X c #E9B798",
",X c #E9B091",
"<X c #CDB8AC",
"1X c #ECBDA3",
"2X c #E39D8B",
"3X c #F4C49E",
"4X c #D9C5B6",
"5X c #F5C7A7",
"6X c #F4C9B1",
"7X c #FBD7B7",
"8X c #F1CFB2",
"9X c #FEE0BF",
"0X c #BABEC2",
"qX c #B5B8C4",
"wX c #A9ABC4",
"eX c #959BC5",
"rX c #C1BBC4",
"tX c #BDC1C5",
"yX c #BFC4C9",
"uX c #C3C3C4",
"iX c #C1C6CB",
"pX c #C4C9CD",
"aX c #CBCCCD",
"sX c #CDC5C9",
"dX c #C6CCD2",
"fX c #C9CED3",
"gX c #CBD1D5",
"hX c #CCD4DA",
"jX c #D3D4D5",
"kX c #D1D6DB",
"lX c #D4DADE",
"zX c #DADBDD",
"xX c #D9CDC7",
"cX c #E8D7C7",
"vX c #F5DCC3",
"bX c #FCE4C8",
"nX c #FDECD5",
"mX c #FCEED9",
"MX c #D6DBE0",
"NX c #DADEE1",
"BX c #DEE1E4",
"VX c #E2E3E5",
"CX c #E7E9EA",
"ZX c #FEF9E9",
/* pixels */
"                                                                                ",
"                                                                                ",
"                            v.j.Y.~.Y.j.j.j.j.j.j.j.                            ",
"                          m.~.R.{. X}.].R.P.I.I.P.T.b.v.                        ",
"                      Y.Y.^.|.+XyXiX0X X].T.T.T.R.{.|.(.Y.b.                    ",
"                    ~./. X+XtXiXdX0X{._.R.R.]. X0XaXaXuX+X/.b.                  ",
"                  j.E.].@XyXtXyXyX@X].R._.{.+XiXhXNXVXNXgX$X/.b.                ",
"                j.P.P.R.{. X[.{.+X@X0X0X0XyXpXfXhXlXMXMXzXjX$X/.b.              ",
"              ^.E.T.T.T.R.R.R.'.XXyXdXgXgXgXgXhXhXhXhXhXMXNXfX$X/.b.            ",
"            (.OX X].R.R.T.T.]. XyXdXgXhXhXhXhXhXhXhXhXhXkXMXNXjXOX(.b.          ",
"          (.{. X].T.P.P.P.T.}.yXdXgXhXhXhXhXhXMXNXNXlXhXlXNXCXVXuX].Y.v.        ",
"        (.OX}.T.J.+. .+.@.T.+XdXgXgXgXhXhXhXlXBXCXCXBXlXNXCXCXVXuX].T.v.        ",
"      v.R. X'.@...R T R | L.}.iXfXdXpXgXNXBXBXBXCXCXNXfXkXCXCXVXuX{.R.~.        ",
"      v.T._.W.$.R I I I T  .R.#XfXiX#XaXVXCXVXlXlXVXjX0XaXzXVXzX#X{.].R.j.      ",
"      g.P.T.L. .~ Q ^ ^ ^ X.T.#XjXaX$XaXCXCXVXfXpXkXaXOXOXuXaXuX{.R.].R.Y.v.    ",
"      g.I.I.#. .` >.2.9.,.5.Q.#XzXaXOXpXVXCXzXuX#XpXyX}.{.}.}.{.R.T.Q.R.P.v.    ",
"      g.I.I.#.X.5.x.V.*XB.!.).<XzXuX{.@XkXNXgX#X+XiX@X].R.].{.].T.W.R.T.h.d.    ",
"      d.#.#. ...7.*X>X3X,X;X).OXuXOXT.[.yXdXtX{.[.+X XT.T.R.].R.P.I.T.P.o.t.    ",
"      t._ R E ~ 5.-X5X7X5X:XQ.E.R.P.@.T. X+X{.P.I.T.T.P.I.T.T.I.#.#.I.#._ S     ",
"        S S ( ~ 8.;X6XbX7X1XQ.I.I.+...I.].{.R.+. .@.I.L.L.I.I.L. .| +...U C     ",
"            r.` 7.;X6XbXbX4XQ.I.G. .| @.R.].T...| #.@.+.+.L.I.#.| T R T c f     ",
"              ` 7.;X6XbXbX4XU.O.$.R T +.T.R.I.| R +.+.| | +.#. .L 7 K b V       ",
"              >.7.;X6XbXvX<XG.[ ] Y T ..L.I.#.R E $. .T T | | R 7 , , s         ",
"              1.x.>X7X8X<XQ.W.S.} ~ Q _ +.+.| P K R T 7 6 K L L 7 , > a         ",
"              c.=X5X7X4XU.O.W._.I.X.! ` X.X._ x w I L 9 < , 7 K K 6 3           ",
"              C.>XvXbX4XG.] O.W._.U.>.,.z.z.5.^ ! 4.` 2 , 5 7 K 6 j             ",
"              -X6XmXnX4XH.] [ S..X).9.l.*X*XN.,.2.B.5.w , 7 K 6 i               ",
"              ,X6XnXnXxX`.A.A.K.qX<X-X*X2X2X*X0.0.B.9.w 5 7 6 i                 ",
"              C.>X7XbXcXwX`.K.eXpXcX6X1X>X,X*X0.9.0.>.w , 6 j                   ",
"              f.B.5X7XvXxXsXsXxXcXbXvX7X8X5X-X9.:.:.! 1 : 3                     ",
"              s.f.C.>X8X7X7X7X7X7X7X7X7X6X>XV.,.B M q - =                       ",
"                a.f.B.,X>X3X3X5X5X5X3X>X-XN.9.;.M q > # d                       ",
"                  s.f.q.q.c.x.V.-XV.B.9.,.! M e q > : 3                         ",
"                    d.~ P v ! >.,.,.;.v q 1 > > @ O : 3                         ",
"                    D 8 : > q e v e q 1 > < < < < < < 3                         ",
"                    h 3 @ @ : < < > > , 5 8 8 5 5 5 , %                         ",
"                  i.i.A j , , , , , , 5 7 K F 7 6 5 , #                         ",
"                  Z &.*.N 6 5 6 6 6 6 p K K K 7 6 5 , =                         ",
"                  n v k c 6 6 7 K K K K K K K 7 6 6 5 3                         ",
"                  n v k w 6 7 F K K K K K K K 7 6 6 6 6 V                       ",
"                  Z &.*.n w K K K P K K P K K 7 6 6 6 6 3 s                     ",
"                  Z A %.n x K K K K K K P K K x 7 6 5 , : &                     ",
"                  n c j w 6 K K K P K K K K K K K 6 , : X +                     ",
"                  n N m c 6 K K P P K K K K K K K 6 , X . +                     ",
"                  Z &.*.N x K K P P K K 7 K K K K 6 , X . +                     ",
"                  n N m v w K K P K K x 7 K K K K 6 , X . +                     ",
"                  n c j w 6 K K K K x 7 6 K K K K 6 , X X #                     ",
"                  Z A A v w K K K 6 , 5 6 K K K 7 6 , X 0 , y                   ",
"                  Z &.*.N x K K K 5 : , 8 K K 7 6 8 , 0 < , > y                 ",
"                  n v k c 7 7 F K 5 0 , 5 x K 7 6 8 , X < , < *                 ",
"                  n v k w 6 6 7 7 , 0 < 5 7 K 7 6 5 , X < , < *                 ",
"                  Z &.*.n 6 6 6 6 9 < 2 7 K K K 7 6 , : < 5 < *                 ",
"                  Z A %.n 6 6 6 6 K L R  .+.$.| R L 6 , , 5 < *                 ",
"                  n c j w 6 6 6 7 R L.R.}.{.'.W.#.| P 6 5 5 > y                 ",
"                  n N m c 6 6 6 7 E 6.!.Q.W.@. .R P 7 6 5 3 s                   ",
"                  S *.*.N 6 6 6 7 v ! ,.5.` P 6 1 < , , , %                     ",
"                  p.D m c 6 8 8 8 8 e >.0.9.>.^ e > X : X &                     ",
"                    e.s 3 5 5 5 5 , 1 ! x.V.B.,.Q > o X . +                     ",
"                        y : : : : X > v ,.1.,.M q O . . . +                     ",
"                        a @ X : : 0 > q M ! M 2 : O X . . +                     ",
"                        a @ , , , , 5 6 w c w 8 9 , < X . +                     ",
"                        l 9 , 5 5 8 6 7 7 7 6 7 6 5 , @ &                       ",
"                          w , < 5 6 6 7 K 7 7 H K 6 , $ a                       ",
"                          Z 3 : 5 6 6 F K K 7 K K 7 , %                         ",
"                            y < 5 5 6 x K K K 7 7 7 5 %                         ",
"                            z 4 , , 6 7 K K K K 7 7 5 %                         ",
"                            ( H < < 5 7 K K K K K 7 , #                         ",
"                            ( H < < 5 F K P P K K x 5 #                         ",
"                            ( H < < 5 F K P P K K K 5 # s                       ",
"                            ( H < < 5 F K P P K K 7 2 @ &                       ",
"                            ( H < < 5 F K P P K K 7 5 : X &                     ",
"                          ( Y H < < 5 7 K K P K K K 6 5 : &                     ",
"                        ( Y J 8 , , 6 K K K P K K K 7 5 , &                     ",
"                      ` ~ J 4 < 5 6 K K K P K K K 7 6 5 , &                     ",
"                      ] ] J < : 5 K L L P K K K K 7 7 5 , &                     ",
"                    ' { ] J 9 < 5 K T T P P K K K K 7 8 , &                     ",
"                    ' { ] Y H 4 , 6 P T T T T L P K 7 5 , &                     ",
"                      ` ~ ~ W F < , K L T T T T L K 6 5 < &                     ",
"                          S c 4 9 6 P K 6 5 5 5 5 8 5 < X &                     ",
"                            l 9 7 T R P 9 < : X : , , @ + u                     ",
"                            n H L |  .| P 5 , X X X X + a                       ",
"                            r.( R R | R P 6 , X . o + u                         ",
"                              i.Q P 6 2 2 > @ @ o @ u                           ",
"                                S z a a a a u u u                               ",
"                                                                                ",
"                                                                                "
};