/* XPM */
static char *rightc1a5601470ae354032d9523d5b28kefZd2l4tgUYoXz[] = {
/* columns rows colors chars-per-pixel */
"40 86 244 2 ",
"   c #000000",
".  c #161616",
"X  c #1D1D1D",
"o  c #191916",
"O  c #221E1D",
"+  c #262C14",
"@  c #23221D",
"#  c #2A2D1B",
"$  c #282B19",
"%  c #2D321B",
"&  c #2C3215",
"*  c #333B15",
"=  c #343A1B",
"-  c #36281E",
";  c #231E25",
":  c #242424",
">  c #2B2522",
",  c #2C2B2B",
"<  c #292628",
"1  c #352B28",
"2  c #33332D",
"3  c #373926",
"4  c #322B36",
"5  c #343434",
"6  c #3B3B35",
"7  c #3B3B3B",
"8  c #393437",
"9  c #2E2C2D",
"0  c #1F1E1E",
"q  c #44362C",
"w  c #443C36",
"e  c #573C33",
"r  c #513428",
"t  c #573D29",
"y  c #3C4419",
"u  c #3D4B0F",
"i  c #3E4429",
"p  c #3E4036",
"a  c #444D15",
"s  c #4A5618",
"d  c #4F5A15",
"f  c #586818",
"g  c #5F7017",
"h  c #6C6D1B",
"j  c #484729",
"k  c #554A2A",
"l  c #4B5426",
"z  c #555928",
"x  c #42413B",
"c  c #494735",
"v  c #574836",
"b  c #4E5431",
"n  c #585738",
"m  c #68592D",
"M  c #66483B",
"N  c #665A36",
"B  c #724F34",
"V  c #576326",
"C  c #5D6434",
"Z  c #64653A",
"A  c #786738",
"S  c #68733A",
"D  c #706C29",
"F  c #3D3542",
"G  c #3B2D43",
"H  c #443947",
"J  c #4D3C51",
"K  c #444444",
"L  c #4C4C4C",
"P  c #4B4645",
"I  c #554B49",
"U  c #5A5449",
"Y  c #564A57",
"T  c #545454",
"R  c #5B5B5B",
"E  c #5B5757",
"W  c #4E464D",
"Q  c #65574A",
"!  c #785448",
"~  c #655957",
"^  c #72524E",
"/  c #5F6252",
"(  c #6A6649",
")  c #747948",
"_  c #676658",
"`  c #776659",
"'  c #717551",
"]  c #5B4966",
"[  c #5B526B",
"{  c #665569",
"}  c #6B596D",
"|  c #646464",
" . c #6C6C6B",
".. c #6A6765",
"X. c #756A68",
"o. c #72746A",
"O. c #776676",
"+. c #747474",
"@. c #7B7B7B",
"#. c #787878",
"$. c #6D6C6E",
"%. c #836B35",
"&. c #88743B",
"*. c #947C37",
"=. c #847328",
"-. c #845F3F",
";. c #865B4A",
":. c #8A5E51",
">. c #896659",
",. c #976957",
"<. c #927050",
"1. c #A6755C",
"2. c #A16D5C",
"3. c #866B65",
"4. c #867269",
"5. c #98756A",
"6. c #877A77",
"7. c #9A7674",
"8. c #946E6E",
"9. c #A87766",
"0. c #B47C6A",
"q. c #AA7C73",
"w. c #805B64",
"e. c #798D14",
"r. c #798338",
"t. c #7A864C",
"y. c #7E8076",
"u. c #93A616",
"i. c #8C8E31",
"p. c #92A72A",
"a. c #A9AA2C",
"s. c #A3A325",
"d. c #8E9056",
"f. c #A78A4A",
"g. c #999D6A",
"h. c #84837C",
"j. c #939A79",
"k. c #8D8F6E",
"l. c #B9846D",
"z. c #A98578",
"x. c #BA8674",
"c. c #B18869",
"v. c #99A46A",
"b. c #9AA37C",
"n. c #9CA675",
"m. c #A2B06D",
"M. c #A7BF4E",
"N. c #C38B76",
"B. c #C89479",
"V. c #CC9875",
"C. c #D8AB78",
"Z. c #ABC646",
"A. c #545692",
"S. c #7A7589",
"D. c #6C75B0",
"F. c #5C68AC",
"G. c #857886",
"H. c #8A7C8F",
"J. c #7D829C",
"K. c #7F8AC0",
"L. c #838383",
"P. c #8B8B8B",
"I. c #8A8886",
"U. c #948687",
"Y. c #96988A",
"T. c #949494",
"R. c #9B9B9C",
"E. c #989996",
"W. c #8F8C91",
"Q. c #A79B96",
"!. c #AD9089",
"~. c #9DA387",
"^. c #9EA293",
"/. c #A2A59B",
"(. c #A2A796",
"). c #AEA697",
"_. c #9E9FA1",
"`. c #8F91B6",
"'. c #9EA1A2",
"]. c #A3A4A4",
"[. c #A5A7A9",
"{. c #A6A9AB",
"}. c #AAABAC",
"|. c #A9AAA5",
" X c #ACAEB1",
".X c #A8ABB3",
"XX c #AEB1B3",
"oX c #AFB4B8",
"OX c #B2B4B5",
"+X c #B3B6B9",
"@X c #B6B9BD",
"#X c #BABBBC",
"$X c #B7B8B7",
"%X c #B3B0AA",
"&X c #A09FAB",
"*X c #D79B86",
"=X c #CD9987",
"-X c #DAA589",
";X c #DBA893",
":X c #DDB396",
">X c #E9B798",
",X c #E9B091",
"<X c #CDB8AC",
"1X c #ECBDA3",
"2X c #E39D8B",
"3X c #F4C49E",
"4X c #D9C5B6",
"5X c #F5C7A7",
"6X c #F4C9B1",
"7X c #FBD7B7",
"8X c #F1CFB2",
"9X c #FEE0BF",
"0X c #BABEC2",
"qX c #B5B8C4",
"wX c #A9ABC4",
"eX c #959BC5",
"rX c #C1BBC4",
"tX c #BDC1C5",
"yX c #BFC4C9",
"uX c #C3C3C4",
"iX c #C1C6CB",
"pX c #C4C9CD",
"aX c #CBCCCD",
"sX c #CDC5C9",
"dX c #C6CCD2",
"fX c #C9CED3",
"gX c #CBD1D5",
"hX c #CCD4DA",
"jX c #D3D4D5",
"kX c #D1D6DB",
"lX c #D4DADE",
"zX c #DADBDD",
"xX c #D9CDC7",
"cX c #E8D7C7",
"vX c #F5DCC3",
"bX c #FCE4C8",
"nX c #FDECD5",
"mX c #FCEED9",
"MX c #D6DBE0",
"NX c #DADEE1",
"BX c #DEE1E4",
"VX c #E2E3E5",
"CX c #E7E9EA",
"ZX c #FEF9E9",
/* pixels */
"                                                                                ",
"                                                                                ",
"                                                                                ",
"                            j.j.j.j.j.j.j.j.j.j.                                ",
"                          F.S.S.S.S.A.G.H.U.H.J.F.                              ",
"                    k.k.I.Y.J.A.S.A.J./.}.6X6X].Y.I.k.k.                        ",
"                  I.Y.(..X X{.~.J.J.J.~.].wXuXrX|.(.Q.J.k.                      ",
"                I.Y.|.sXgXgXpXwX].~.J.J.H.].rXuXrXwX|.(.U.s.                    ",
"              I.~. XpXcXbXbXvXpXrX|.]././.].|.|.}.|.}.^.J.A.s.                  ",
"            I.Y.|.sXcXfXdXdXaXaXpXiXuXtXtXwX{.~.H.~.~.J.G.A.A.F.                ",
"          I.).eXsXfXvXaXaXaXaXaXaXaXaXaXaXuXwX`.H.J.J.J.J.J.~./.T.              ",
"        s.U.{.sXnXcXfXaXaXfXfXfXaXaXaXaXaXaXiXwX(.J.G.J.J.J.^.}.XXT.            ",
"        F.H..XgXmXMXcXfXvXbXMXbXfXaXaXaXaXaXaXuX6XQ.S.#.#.#.S.H.(.XXT.          ",
"      l.F.~.|.gXmXmXbXaXfXMXmXMXcXvXfXaXiXiXpXiX6XH.$.o.....X.Z.R.}./.k.        ",
"      I.Y.~.|.sXmXmXgXeXpXnXnXcXbXMXMXfXeXwXuXrX(.Z.] Q E E W X.A.~.R.s.        ",
"    s.J.~.~.(.eXsXsXyX|.eXgXdXpXnXmXmXgX X6XiXrX~.$./ ~ ~ Y Q ..#.J.G.s.        ",
"    s.J.~.J.J.(.|.|.{.`.6XiXrXqXgXmXmXfX|.eXfXyX).6.:.>.>.( ( ] $.S.S.s.        ",
"    a.G.H.J.G.H././.~.~.}.rX6X|.iXbXbXiX{. XgXyX_.P.8.f.g.8.3.O.@.Z.Z.a.        ",
"    w.S.J.G.A.H.~.~.H.J./.6X}.].wXpXpX6X~.XXsXeX_.OX+X&X&X+Xh.O.%.#.Z.d.        ",
"    { $.A.Z.Z.A.J.J.G.A.J.^.H.J.(.6X6X/.A.G.(.(.Y.%X=X<X<X*Xg.O.W o.o.'         ",
"    _ o.$.@.X.#.S.A.S.Z.S.S.$.$.J.(.(.J.$.$.S.G.J.%X<X2X3X=Xg./ Y _ _ F         ",
"    N E o.....$.Z.Z.Z.$.#.#.o.o.S.~.~.A.o.o.#.Z.G.;X3XlX3X=Xg.O.`               ",
"    A N E P E X.#.6.$.o.@.#.o...Z.H.~.Z...W @.#.S.;XkXlX3X=XP.2.'               ",
"      A 6 5 7 W X.X...W o.$...W $.A.G.$.Q R } | +._.kXzX3X=XP.2.'               ",
"        2 ; 5 P Q E P L Q o.Q P o.#.#.%.Q R } | +.L.;XjX2X:X@X3.<.              ",
"        * 3 7 L L 7 9 9 L E L 7 Q X.%.O./ / +.V.K.V.D.;X2X<X$Xh.i.              ",
"          z 7 L 7 5 : > b [ Y m ( 4.7.2.:.2.D.J.K.+.+.;XkX2X:Xc.i.              ",
"          j 4 7 L 7 5 3 ( h.1.:.8.@X@X9.,.d./.K. .}  ._.lXzXkX*Xn.              ",
"            j z 7 L 5 3 [ c.f.1.x.#X#X+Xx._. XW.B.m.M..XlXzXkX=Xb.              ",
"              j 4 6 5 < ^ g.f.9.c.&X*X*X=X,XyX!.N.N.C.0XlXlX4X*Xb.              ",
"                j a > > B ,.1.1.v.-X:X<X1X3XjXtX8X8X7XhXlX2X=Xc.i.              ",
"                    = : 0 B ^ ,.c.-X1X2XkXlXlXkXjXjXjXkX3X>Xc.i.                ",
"                    j - , 0 B ;.8.v.=X<X1X1X1X1X1X1X1X<X*Xc.i.t.                ",
"                      u ; , 0 B ;.,.9.c.$X-X-X-X&X$X+XOXg.i.y.                  ",
"                      z ; ; , 1 0 w U ^ ,.9.f.f.1.>.( 2.<.r.                    ",
"                      z ; o o # ; > < 0 m ) ^ ^ B q q ~ u.r.                    ",
"                      * o o o o > 5 7 5 < 1 0 6 3 6 n <.i.e.e.                  ",
"                      & O O O o > 7 7 5 ; ; > > 3 7 U D *.S F                   ",
"                      & O O O ; 5 H 7 5 ; ; 7 7 q L b b z n F                   ",
"                      u o o o > 7 L 7 > ; > 7 L L I U V V M F                   ",
"                      z ; o ; 5 7 L 7 5 ; > 7 L L I Y =.=.` F                   ",
"                    j a > o > 7 L L L 7 > > > 7 L L U V D M F                   ",
"                  d 2 3 > o > 7 L L L L 5 > ; > L I L b z b S                   ",
"                  t ; > > o > 5 L L L L 7 > ; > L I U D D V F                   ",
"                  t ; > > o > 7 L L L L 7 5 ; > 7 L Y *.=.` F                   ",
"                  i ; > > o > 7 L L L L L 7 5 > > 7 b x x n F                   ",
"                  f > 5 > o > 7 L L L L L H 5 > ; 5 b x x n F                   ",
"                  c 8 7 > ; > 7 L L L L L L 8 > ; 5 Y *.=.S F                   ",
"                  N 7 7 5 ; > 5 7 L L L L L 8 > ; 5 n D *.V F                   ",
"                * 6 7 L 5 ; > 5 7 7 L L L L 5 : o 3 b b z n F                   ",
"              y ; 5 L L 7 > > > 5 7 7 L L 7 5 : o 3 b V V M F                   ",
"              y : 7 L L L 7 > ; 5 7 L P P P I 7 > 7 Y =.=.S F                   ",
"              y : 7 L L L L > ; 7 Q X.#.S.A.A.#.o.E U V V M F                   ",
"              y : 7 L L L L 5 > 7 W $.A.R./.XX~.S.o.U b z b S                   ",
"              y ; 5 7 L L L 7 > > 8 L E W $.P.h.4./ Y D *.V F                   ",
"              p # > 5 7 7 7 7 5 ; ; < q U ( 8.,.^ m n *.e.D                     ",
"              p X o ; ; ; ; < < ; , m >.8.g.x.1.) 0 1 0 l                       ",
"              p X O O O O o ; : # , m ,.f.c.f.,.m 1 o X y                       ",
"              p X O O o o o o o o + , w ^ :.;.m 1 + O O y                       ",
"              p @ ; ; ; ; ; ; ; ; ; ; , 0 w 0 1 o O o # f                       ",
"              d # > 5 5 5 5 5 5 5 5 > > , # + + o o o > v                       ",
"              y # 5 7 7 7 7 7 7 7 5 > ; o O O o ; , > 7 S                       ",
"              y : 5 7 L 7 7 L L 7 5 ; o O O o ; 5 5 7 T `                       ",
"            g 4 3 7 7 7 L L L L 7 5 ; O O O o ; 5 7 H T / '                     ",
"            % 2 7 7 L 7 L L L L 7 5 ; O O O o ; 5 7 7 T R /                     ",
"          d $ > 7 7 7 L L L L L 7 5 # O O O o ; 5 7 7 J T R {                   ",
"          g : 5 7 7 L L L L L L 8 4 i & @ O o ; 5 7 7 7 J R {                   ",
"        f 4 3 7 L L L L L L L 7 > i     & O o ; 5 7 7 7 J T {                   ",
"        % > 7 7 L L L L L L L 7 : i       & $ ; 5 7 7 7 7 J M                   ",
"        % > 5 7 7 L L L P L L 5 ; t         % ; 5 7 7 7 5 > : i                 ",
"        4 5 7 7 L L L L P L 7 5 ; i         & ; 5 7 7 7 5 > ; > c               ",
"        b 5 7 L L L L L P L 7 5 % d         & ; 5 7 7 7 7 8 8 8 I `             ",
"      c s 7 L L L L L L P L 5 4 g           & ; 5 7 7 J K K K K R R [           ",
"    i 2 7 L L L L L L L P L 3 *             & ; 9 5 7 K R R R R R R R [         ",
"    % ; 5 7 7 L L L L I P P 5 *             & o ; > 8 J J J J J J K R /         ",
"    & ; > 5 7 L L P P P E P 5 *               $ @ ; 9 5 5 5 5 5 5 7 U {         ",
"    % o ; > 7 P Q Q W Q E L > &               h $ o # ; ; ; ; ; > s F           ",
"      % @ ; 5 L P P P P P L 5 *                   t t t t t t y f A             ",
"        $ o ; ; > > > 5 L P L 3 u k                                             ",
"          % O O o ; > 5 P ..W L 5 c                                             ",
"            $ $ # > 7 P ..X.o.Q P S                                             ",
"              h h 4 5 H P Q Q Q { e.                                            ",
"                  g % * * a b ` r.                                              ",
"                                                                                ",
"                                                                                ",
"                                                                                "
};