/* XPM */
static char *rightb1863d84b5fe6617ccfe478855f5st6e5ERvaIew4rX[] = {
/* columns rows colors chars-per-pixel */
"40 86 241 2 ",
"   c #000000",
".  c #161616",
"X  c #1A1B15",
"o  c #1C1C1C",
"O  c #181716",
"+  c #221E1D",
"@  c #1E2117",
"#  c #23231D",
"$  c #262917",
"%  c #2D3316",
"&  c #333C14",
"*  c #323A1B",
"=  c #32351A",
"-  c #37281F",
";  c #232323",
":  c #2B2623",
">  c #2B2A24",
",  c #2C2C2B",
"<  c #272922",
"1  c #332A27",
"2  c #2D3023",
"3  c #33332C",
"4  c #383827",
"5  c #343434",
"6  c #3C3B35",
"7  c #3B3B3B",
"8  c #393637",
"9  c #322D31",
"0  c #1F1F20",
"q  c #45382C",
"w  c #54362D",
"e  c #413E3B",
"r  c #443B34",
"t  c #513B34",
"y  c #613C36",
"u  c #3E490F",
"i  c #3A4412",
"p  c #3E4912",
"a  c #3A431B",
"s  c #3D4329",
"d  c #3E4038",
"f  c #414C12",
"g  c #454B1B",
"h  c #495517",
"j  c #535C1B",
"k  c #47530F",
"l  c #576716",
"z  c #4F600F",
"x  c #484629",
"c  c #564A2A",
"v  c #4D5528",
"b  c #555A28",
"n  c #43423B",
"m  c #484636",
"M  c #574836",
"N  c #4D5335",
"B  c #595535",
"V  c #68582A",
"C  c #674639",
"Z  c #685A35",
"A  c #6F4F34",
"S  c #5B652B",
"D  c #5B6533",
"F  c #766535",
"G  c #69743B",
"H  c #6E6B2E",
"J  c #6C651C",
"K  c #3F3A41",
"L  c #453C49",
"P  c #4C3D52",
"I  c #444444",
"U  c #4C4C4C",
"Y  c #4B4745",
"T  c #574A48",
"R  c #58534A",
"E  c #544858",
"W  c #545353",
"Q  c #5C5C5C",
"!  c #5B5854",
"~  c #4E4153",
"^  c #674B44",
"/  c #65584A",
"(  c #785649",
")  c #685B56",
"_  c #795D55",
"`  c #754F41",
"'  c #5E624B",
"]  c #656657",
"[  c #796659",
"{  c #6F7349",
"}  c #594C6B",
"|  c #63566A",
" . c #68536C",
".. c #636363",
"X. c #6C6C6C",
"o. c #696867",
"O. c #766A67",
"+. c #766778",
"@. c #737373",
"#. c #7C7C7C",
"$. c #787676",
"%. c #717369",
"&. c #5F6061",
"*. c #887236",
"=. c #937A37",
"-. c #856F2F",
";. c #826B2C",
":. c #865A49",
">. c #825D51",
",. c #8A6759",
"<. c #976A58",
"1. c #8F6E4F",
"2. c #A5725B",
"3. c #886A65",
"4. c #897368",
"5. c #997768",
"6. c #887A78",
"7. c #937371",
"8. c #A87868",
"9. c #B47C6A",
"0. c #AC7C75",
"q. c #845F65",
"w. c #79844F",
"e. c #7D8170",
"r. c #938D32",
"t. c #A9AB27",
"y. c #9C9A2D",
"u. c #8E8F51",
"i. c #A48A45",
"p. c #AD9054",
"a. c #959D77",
"s. c #8D8F72",
"d. c #B9856B",
"f. c #AA8578",
"g. c #B78675",
"h. c #B48E6E",
"j. c #99A56A",
"k. c #9BA477",
"l. c #A2B068",
"z. c #A4B65D",
"x. c #C48B75",
"c. c #C99679",
"v. c #CE9679",
"b. c #D7AE6C",
"n. c #545590",
"m. c #756C8A",
"M. c #6D76AF",
"N. c #545EA3",
"B. c #847B8A",
"V. c #7C83AA",
"C. c #848484",
"Z. c #8B8C8C",
"A. c #8A8985",
"S. c #968A8A",
"D. c #969B87",
"F. c #8C8A92",
"G. c #939494",
"H. c #9B9B9B",
"J. c #989898",
"K. c #918E90",
"L. c #A59998",
"P. c #A88F8C",
"I. c #9CA383",
"U. c #9DA28C",
"Y. c #9EA198",
"T. c #A2A49C",
"R. c #A2A595",
"E. c #AEA991",
"W. c #9C9CA2",
"Q. c #858BB6",
"!. c #9FA1A3",
"~. c #A3A4A4",
"^. c #A4A6A9",
"/. c #A6A9AA",
"(. c #AAABAC",
"). c #A9A9A4",
"_. c #ABAEB1",
"`. c #A4A3B7",
"'. c #AEB1B4",
"]. c #AFB3B8",
"[. c #B2B3B5",
"{. c #B3B6B9",
"}. c #B6B9BD",
"|. c #BABBBC",
" X c #B9B7B6",
".X c #B0AFAB",
"XX c #CA9685",
"oX c #D59A84",
"OX c #DAA588",
"+X c #D7AD94",
"@X c #E4AA8B",
"#X c #E4AB94",
"$X c #E9B798",
"%X c #EEB997",
"&X c #CBB8AD",
"*X c #EFBDA5",
"=X c #E39D8A",
"-X c #D6C2B6",
";X c #D3C1B3",
":X c #F6C8A8",
">X c #FDD4AF",
",X c #F9D7B9",
"<X c #ECCCB2",
"1X c #F3C29B",
"2X c #939AC2",
"3X c #BABEC2",
"4X c #B7B9C2",
"5X c #A9ABC5",
"6X c #9AA1C6",
"7X c #C4BDC7",
"8X c #BDC1C5",
"9X c #BEC4C9",
"0X c #C3C3C4",
"qX c #C1C6CB",
"wX c #C4C9CD",
"eX c #CACBCC",
"rX c #CEC3C5",
"tX c #C6CCD2",
"yX c #C9CED3",
"uX c #CBD1D6",
"iX c #CCD4DA",
"pX c #D3D4D4",
"aX c #D2D6DA",
"sX c #D4D9DE",
"dX c #DADCDD",
"fX c #DACEC9",
"gX c #E8D8C7",
"hX c #F6DCC3",
"jX c #EEDFD0",
"kX c #FCE4C7",
"lX c #FDECD3",
"zX c #F7E7D5",
"xX c #FCEFD9",
"cX c #DADEE1",
"vX c #D6DCE0",
"bX c #DEE1E5",
"nX c #E2E3E5",
"mX c #EAEBEC",
"MX c #E4E7E9",
"NX c #FEF7E6",
"BX c #FDFBEE",
/* pixels */
"                                                                                ",
"                                                                                ",
"                                                                                ",
"                            j.j.j.j.j.j.j.j.j.j.                                ",
"                        l.D.A.A.A.A.K.J.H.Y.H.J.I.                              ",
"                    k.k.U.R.G.Z.A.G.H.(.}.3X4X'.T.I.k.j.                        ",
"                  I.T.(. X}._.~.J.G.H.^.{.9XtX9X{.(.Y.J.k.                      ",
"                U.).|.pXdXdXuX8X'.~.J.G.W.].wXtXqX9X}.(.H.k.                    ",
"              I.).0XpXcXbXbXsXyX9X}._./.(.[.}.}.{.}.{.^.G.A.a.                  ",
"            I.).|.aXcXsXaXaXiXuXuXtXtXwXqX3X[.~.H.~.^.J.K.Z.K.a.                ",
"          I.).0XpXdXvXiXiXiXiXiXiXiXiXiXuXtX3X(.H.J.J.J.J.H.~.(.E.              ",
"        D.R. XpXnXcXsXiXiXsXsXaXiXiXiXiXuXuXtX3X(.G.G.G.J.H./.{.(.U.            ",
"        D.H.|.dXmXMXcXsXvXnXMXbXsXiXiXiXuXuXuXtX}.H.A.#.#.#.Z.W.(.[.E.          ",
"      j.D.~.}.dXmXmXcXuXcXmXmXMXcXvXsXiXtXyXuXtX}.G.@.o.....X.C.~.{.~.k.        ",
"    j.I.T.^.}.dXmXmXpX0XpXMXbXcXnXMXMXpX8XqXtX8X/.#.Q W W W Q X.K.^.H.a.        ",
"    D.H.^.~.(.eXdXpX0X}.eXdXaXuXnXmXmXpX|.8XuX8XL.O./ / / T ! ..C.G.G.a.        ",
"    a.J.~.J.H.(.}.}.[.'.8XtX8X0XdXmXmXpX}.0XaX0XT.4.>.,.,._ ) o.#.A.Z.a.        ",
"    s.G.H.G.G.~.(.(.^.^.}.qX}.}.pXnXbXeX[.0XdXeX).f.9.g.d.8.3.O.@.C.A.a.        ",
"    e.Z.J.G.Z.H.^.^.H.J._.8X{.'.qXiXuX}.!. XpX0X.XXXOX#X#XoX0.O.@.#.C.s.        ",
"    ] #.Z.C.C.K.J.J.G.Z.H.^.J.J._.3X}.^.A.G.[.(.T.+X%X:X:X#Xf.o.Q ..o.{         ",
"    ' o.#.X.@.C.A.A.A.C.A.A.#.#.J.(.(.G.@.#.Z.G.L.+X:X,X>X#X0.) R ' ' G         ",
"    m W ..Q ..#.C.C.#.$.#.#.o.o.K.^.^.A...o.C.A.J.&X,XkX,X#X0._ G               ",
"    b N W U W @.6.#.@.o.@.#.....A.H.H.C.Q | @.#.S.;XkXkX,X#X0.O.                ",
"      b 6 5 I Q X.X...Q X.@...Q #.K.Z.$.! E | | $.&XkXkX,X#X0.O.                ",
"      h > , 8 W ! W U I Q ..W U o.#.#.X.! E } | $.L.;XhX,X$XP.4.                ",
"        2 5 7 Y I 6 9 5 I W e e ! X.X.[ ) ) +.F.F.B.S.-X,X:XoXd.                ",
"        j s 7 I 7 5 : > T [ T M [ 7.7.,.>.4.K.J.F. .+.&XkX,X$Xc.                ",
"          j 6 7 I 7 5 3 [ h.<.>.8.XXXX9.<.S./.F. .} +.&XzXlX<XOX                ",
"            j s 7 I 5 8 ,.v.d.8.x.=X=Xv.x.E.4XQ.n.n.m.&XlXxXhX$X                ",
"              h 6 7 5 3 ,.x.9.9.v.@X#X#X$X-XwX2XM.M.Q.rXzXkX<X@X                ",
"                j 4 , 1 ^ <.2.8.oX%X:X:X,XhXgXqX5X5X4XgXkX,X#Xx.                ",
"                  h % > q A ( <.v.%X>X,XkXkXkXhXgXgXhXhX>X$Xc.i.                ",
"                    h % 1 q C :.9.oX$X:X>X>X>X>X>X>X>X:X+Xh.p.t.                ",
"                      * ; : w C >.<.d.c.OX@X$X@X@XOXoXXXh.i.t.                  ",
"                      s : ; 1 4 q t ^ ( 2.d.d.d.2.,._ 3.u.t.                    ",
"                      s , , > > , > 9 r C ( _ ( M 4 9 L {                       ",
"                      * , 5 5 5 5 5 6 8 3 4 q 4 1 : < 8 D                       ",
"                      % : 5 5 8 6 7 7 6 5 , , , 3 x c m S                       ",
"                      % o : 9 6 6 6 6 6 7 7 7 6 m *.=.Z S                       ",
"                      % o : 5 7 7 7 6 5 5 7 I 7 m F F B b                       ",
"                      % : 5 7 I I I 6 , : 5 K 7 8 q q r 6 N                     ",
"                    f $ , 5 I I I I 6 , ; , 7 7 m Z F m 6 n S                   ",
"                  i $ # , 5 I I I I 7 , ; , 7 7 M *.=.B 6 n S                   ",
"                  & # , 5 6 I I I I 6 , ; , 7 7 n c B m 6 n S                   ",
"                  & : 5 6 7 I I I 7 5 , : 5 K 7 e x x r 6 n S                   ",
"                  & : 5 7 I I I K 5 , : , 6 I 7 m F *.B 7 I N S                 ",
"                  & : 5 7 I I I 7 5 ; ; 5 7 I 7 m F *.B e I n m S               ",
"                  & : 5 d I I I 7 9 ; ; 5 7 I 7 6 x c r 7 I n 7 N H             ",
"                  % : 5 n I I I 7 , ; ; 5 7 I 7 n c c m 7 I d n R 1.r.t.        ",
"                % @ : 5 7 I I I 6 , ; : 5 e I 7 M *.=.B e I I Y 4.h.p.r.        ",
"              i O O : 5 7 7 I 6 5 , , , 6 I I 7 m Z F M 7 I I Y 5.OXd.=.        ",
"              g ; , 5 I U U U 7 , ; , 6 I I I 7 8 q q 6 7 I I Y 4.v.p.r.        ",
"              D W ..$.C.F.Z.m...5 ; 5 7 I I I 7 m Z F M 7 I I n _ p.i.t.        ",
"              { ] #.K.!._..XL.$.I > 5 7 I I I 7 M *.=.B 6 n m b F r.t.          ",
"              b 7 U W ..6.P.7.[ n 5 5 7 I I 7 6 e c c 4 , d D                   ",
"              p : 4 t ^ ,.8.>.C r 6 6 7 I K 7 6 6 x q $ % v                     ",
"              f 4 ^ <.d.x.9.( q 5 5 5 6 7 6 6 6 m F ;.g f                       ",
"                b ( 2.x.c.8.M : : , , , , , , , q F =.J                         ",
"                  x M :.:.( q + o ; ; ; ; ; ; ; < - j                           ",
"                  & 1 q w q : o ; ; : : : : ; ; ; o i                           ",
"                  & o + # + o o , 5 5 5 5 5 5 5 , ; i                           ",
"                k $ . . . . . o , 6 7 7 6 7 7 7 5 , 4 l                         ",
"              k $ X O O O . . o , 5 7 I 7 7 I 7 6 8 3 =                         ",
"              i O . o : + O . O ; , 6 K I 7 7 e I 7 5 < p                       ",
"              i O o : , : O . . O ; 5 7 I I 7 I I I 7 , f                       ",
"              i # , 5 5 : O . . . o , 6 7 I I I I I e 6 v                       ",
"              & ; 5 5 5 , ; O . . o , 5 6 I I I I I I 7 b                       ",
"            & $ ; 5 6 6 5 , ; O O X # , 6 I I I I I I 7 s h                     ",
"          f X O ; 5 8 6 K 7 < $ i i $ ; 5 6 I I I I I 7 5 4 h                   ",
"          p X O ; 5 6 7 L L 9 i     & o ; , 6 I I I I I 7 d S                   ",
"          & o ; , 5 K L L e v       i o : 5 7 I I I I I I d v                   ",
"        % @ @ , 5 6 L P K 4         i # 5 6 I I I U U I I 7 4 a                 ",
"        @ . 0 9 8 7 L E P e S       i ; 5 7 7 I I U U I I 7 5 4                 ",
"      f $ . o , 6 6 L E E ~ n S       = 3 5 6 I I I U U U U I m S               ",
"        @ . 0 , 5 6 K L L L 5 x       l 4 5 7 7 I I I U U W U n x               ",
"        & $ o , 5 5 5 5 5 3 4 j         & , 7 7 7 I U U W Q W 7 , &             ",
"          i $ # ; < < < < = l           & > 5 6 7 U W Q Q Q W 7 , =             ",
"            p i i i i i i                 * 3 5 6 I U U U U U I 5 2 l           ",
"                                          l = , 5 , , , , 5 7 U I 6 s l         ",
"                                            % ; : o o ; , 5 U ..Q Y 5 x         ",
"                                            & @ o O o , 6 U Q X.o.Q U B         ",
"                                              & X . O : 5 7 U W Q ! { r.        ",
"                                                & % $ % % * * s m / r.          ",
"                                                                                ",
"                                                                                ",
"                                                                                "
};