/* XPM */
static char *rightc0a5601470ae354032d9523d5b28kefZd2l4tgUYoXz[] = {
/* columns rows colors chars-per-pixel */
"40 86 244 2 ",
"   c #000000",
".  c #161616",
"X  c #1D1D1D",
"o  c #191916",
"O  c #221E1D",
"+  c #262C14",
"@  c #23221D",
"#  c #2A2D1B",
"$  c #282B19",
"%  c #2D321B",
"&  c #2C3215",
"*  c #333B15",
"=  c #343A1B",
"-  c #36281E",
";  c #231E25",
":  c #242424",
">  c #2B2522",
",  c #2C2B2B",
"<  c #292628",
"1  c #352B28",
"2  c #33332D",
"3  c #373926",
"4  c #322B36",
"5  c #343434",
"6  c #3B3B35",
"7  c #3B3B3B",
"8  c #393437",
"9  c #2E2C2D",
"0  c #1F1E1E",
"q  c #44362C",
"w  c #443C36",
"e  c #573C33",
"r  c #513428",
"t  c #573D29",
"y  c #3C4419",
"u  c #3D4B0F",
"i  c #3E4429",
"p  c #3E4036",
"a  c #444D15",
"s  c #4A5618",
"d  c #4F5A15",
"f  c #586818",
"g  c #5F7017",
"h  c #6C6D1B",
"j  c #484729",
"k  c #554A2A",
"l  c #4B5426",
"z  c #555928",
"x  c #42413B",
"c  c #494735",
"v  c #574836",
"b  c #4E5431",
"n  c #585738",
"m  c #68592D",
"M  c #66483B",
"N  c #665A36",
"B  c #724F34",
"V  c #576326",
"C  c #5D6434",
"Z  c #64653A",
"A  c #786738",
"S  c #68733A",
"D  c #706C29",
"F  c #3D3542",
"G  c #3B2D43",
"H  c #443947",
"J  c #4D3C51",
"K  c #444444",
"L  c #4C4C4C",
"P  c #4B4645",
"I  c #554B49",
"U  c #5A5449",
"Y  c #564A57",
"T  c #545454",
"R  c #5B5B5B",
"E  c #5B5757",
"W  c #4E464D",
"Q  c #65574A",
"!  c #785448",
"~  c #655957",
"^  c #72524E",
"/  c #5F6252",
"(  c #6A6649",
")  c #747948",
"_  c #676658",
"`  c #776659",
"'  c #717551",
"]  c #5B4966",
"[  c #5B526B",
"{  c #665569",
"}  c #6B596D",
"|  c #646464",
" . c #6C6C6B",
".. c #6A6765",
"X. c #756A68",
"o. c #72746A",
"O. c #776676",
"+. c #747474",
"@. c #7B7B7B",
"#. c #787878",
"$. c #6D6C6E",
"%. c #836B35",
"&. c #88743B",
"*. c #947C37",
"=. c #847328",
"-. c #845F3F",
";. c #865B4A",
":. c #8A5E51",
">. c #896659",
",. c #976957",
"<. c #927050",
"1. c #A6755C",
"2. c #A16D5C",
"3. c #866B65",
"4. c #867269",
"5. c #98756A",
"6. c #877A77",
"7. c #9A7674",
"8. c #946E6E",
"9. c #A87766",
"0. c #B47C6A",
"q. c #AA7C73",
"w. c #805B64",
"e. c #798D14",
"r. c #798338",
"t. c #7A864C",
"y. c #7E8076",
"u. c #93A616",
"i. c #8C8E31",
"p. c #92A72A",
"a. c #A9AA2C",
"s. c #A3A325",
"d. c #8E9056",
"f. c #A78A4A",
"g. c #999D6A",
"h. c #84837C",
"j. c #939A79",
"k. c #8D8F6E",
"l. c #B9846D",
"z. c #A98578",
"x. c #BA8674",
"c. c #B18869",
"v. c #99A46A",
"b. c #9AA37C",
"n. c #9CA675",
"m. c #A2B06D",
"M. c #A7BF4E",
"N. c #C38B76",
"B. c #C89479",
"V. c #CC9875",
"C. c #D8AB78",
"Z. c #ABC646",
"A. c #545692",
"S. c #7A7589",
"D. c #6C75B0",
"F. c #5C68AC",
"G. c #857886",
"H. c #8A7C8F",
"J. c #7D829C",
"K. c #7F8AC0",
"L. c #838383",
"P. c #8B8B8B",
"I. c #8A8886",
"U. c #948687",
"Y. c #96988A",
"T. c #949494",
"R. c #9B9B9C",
"E. c #989996",
"W. c #8F8C91",
"Q. c #A79B96",
"!. c #AD9089",
"~. c #9DA387",
"^. c #9EA293",
"/. c #A2A59B",
"(. c #A2A796",
"). c #AEA697",
"_. c #9E9FA1",
"`. c #8F91B6",
"'. c #9EA1A2",
"]. c #A3A4A4",
"[. c #A5A7A9",
"{. c #A6A9AB",
"}. c #AAABAC",
"|. c #A9AAA5",
" X c #ACAEB1",
".X c #A8ABB3",
"XX c #AEB1B3",
"oX c #AFB4B8",
"OX c #B2B4B5",
"+X c #B3B6B9",
"@X c #B6B9BD",
"#X c #BABBBC",
"$X c #B7B8B7",
"%X c #B3B0AA",
"&X c #A09FAB",
"*X c #D79B86",
"=X c #CD9987",
"-X c #DAA589",
";X c #DBA893",
":X c #DDB396",
">X c #E9B798",
",X c #E9B091",
"<X c #CDB8AC",
"1X c #ECBDA3",
"2X c #E39D8B",
"3X c #F4C49E",
"4X c #D9C5B6",
"5X c #F5C7A7",
"6X c #F4C9B1",
"7X c #FBD7B7",
"8X c #F1CFB2",
"9X c #FEE0BF",
"0X c #BABEC2",
"qX c #B5B8C4",
"wX c #A9ABC4",
"eX c #959BC5",
"rX c #C1BBC4",
"tX c #BDC1C5",
"yX c #BFC4C9",
"uX c #C3C3C4",
"iX c #C1C6CB",
"pX c #C4C9CD",
"aX c #CBCCCD",
"sX c #CDC5C9",
"dX c #C6CCD2",
"fX c #C9CED3",
"gX c #CBD1D5",
"hX c #CCD4DA",
"jX c #D3D4D5",
"kX c #D1D6DB",
"lX c #D4DADE",
"zX c #DADBDD",
"xX c #D9CDC7",
"cX c #E8D7C7",
"vX c #F5DCC3",
"bX c #FCE4C8",
"nX c #FDECD5",
"mX c #FCEED9",
"MX c #D6DBE0",
"NX c #DADEE1",
"BX c #DEE1E4",
"VX c #E2E3E5",
"CX c #E7E9EA",
"ZX c #FEF9E9",
/* pixels */
"                                                                                ",
"                                                                                ",
"                            v.v.v.v.v.v.v.v.v.                                  ",
"                        n.Y.I.I.I.P.Y.Y.E.^.E.Y.n.                              ",
"                    v.n.~.E.P.I.I.T.R.}.+XqX+X{.^.n.v.                          ",
"                  Y.^.|.OXOX].R.T.T._. X0XpXpX0X}.].E.Y.v.                      ",
"                ~.|.uXjXzXjXiX+X{.R.E.R.[.0XdXpXyX0XXX].Y.v.                    ",
"            m.~.{.uXjXBXVXBXkXdX0XXX[.].{.+X0XqX@X0X+X].T.j.v.                  ",
"          n.~.|.uXlXMXlXlXkXhXgXdXpXiXyXyX@X X]._.[.].T.P.P.Y.n.                ",
"          ~.}.uXjXNXlXhXhXhXhXhXhXgXgXgXgXiX+X].R.R.R.E.T.R.'.(.m.              ",
"        Y./.#XzXBXMXhXhXhXkXlXhXhXhXhXhXgXgXiX+X].T.T.R.R.].XX+X(.m.            ",
"      v.T.].uXVXCXBXMXlXNXBXBXNXhXhXhXhXhXgXfXiXXXT.I.L.L.I.E.{. X|.m.          ",
"      n.E.{.uXVXCXCXlXkXVXCXCXVXMXlXkXgXfXgXgXpXXXP.+...| ..#.W. X+X^.          ",
"    n.~./.}.uXVXCXVXgXpXzXCXBXBXVXVXBXfXyXpXdX0X'.+.R T T T | #.R.{.E.v.        ",
"    Y.R.].].$XjXzXzXuX#XjXNXkXkXCXCXVXaX$XpXfX+XT...U U I I R X.P.R.Y.v.        ",
"  v.Y.R.].R.].$X#X#XOXOXpXfXuXaXVXCXVXaX$XaXjX$XT.3.! >.;.^ ~  .L.P.P.v.        ",
"  d.I.R.R.T.T.].{.{.].}.yXiX$XtXzXCXNXuXOXaXzX#XQ.q.9.l.0.,.`  .#.I.I.v.        ",
"  d.y.T.R.P.T.].[.].R._.@XtXXX+XfXkXfXXX].uXjX#X).=X*X,X-XN.5.X.+.L.h.g.        ",
"  t.o.I.P.L.I.T.R.R.T.T.[.{.R.'.@XyX@XR.P.].$X}.).;X1X5X1X*X5._ |  .o.d.        ",
"  S / +.@.+.#.I.P.P.I.I.P.I.#.I.].OX{.I.+.I.T.T.Q.>X5X7X5X-X5.E U U / r.        ",
"  V P | ..R  .y.I.I.@.#.L.#.| +.R.{.].@.| +.I.I.Q.4X7XbX6X*X8.~ S               ",
"  f j I T L R #.L.@.+. .#.+.R ..T.].R.+.R ..@.G.Q.4XbXbX6X-X7.`                 ",
"    g b 6 8 L ..+. .| | +.+.R | I.T.P. .T E { } U.4XnXbX6X-X7.`                 ",
"      s < , p E R T P L | ..T T +.L.@...T Y ] { G.<XcXvX6X;Xq.>.                ",
"      a , 5 K P K 8 5 8 L T 7 K | +.X.~ Q { O.P.W.U.).8X7X>Xx.f.                ",
"        j p x K 6 , < 2 U Q c I X.4.4.>.` 6.W.R.H.} H.4X9X8X-XV.                ",
"          j 6 K H 5 , w 4.c.;.:.q.=Xx.2.>.Y.&XH.} ] G.4XnXbX1XC.                ",
"            j 6 7 7 2 c c.B.9.9.B.2X*XN.x.%XoXS.A.[ H.xXmXnX6XC.                ",
"              i 6 6 9 w 9.N.0.0.*X2X,X,X>X4XqXK.F.F.`.cXnXbX1XC.                ",
"                l 2 , w :.9.2.0.-X>X5X5X7XcXjXqXeXeXqXcXbX8X;XV.                ",
"                  = > 1 M ! ;.1.-X5X7X7XbXbXvXcXcXcXcXvX8X>Xl.f.                ",
"                    y # 1 e B ,.B.;X5X8X7X7X7X7X7X7X8X5X;XV.f.a.                ",
"                    s # : 1 e ! ,.0.B.-X,X>X>X>X,X:X;X=Xc.f.a.                  ",
"                    V 3 : @ 1 q e v ! ,.c.N.N.l.9.>.>.5.f.a.                    ",
"                    z 3 < O : : : > 1 r M ;.;.! v 2 8 I i.                      ",
"                    s % , , , , , , , 1 1 q q q 1 @ : 3 V                       ",
"                    a # , 5 8 6 6 7 8 , < : < < < : 1 k h                       ",
"                    a # , 8 6 7 K K K 6 5 5 5 5 5 5 n *.i.r.                    ",
"                    s 2 5 8 6 7 K K K K 7 7 7 6 8 6 n %.A Z                     ",
"                    V 6 5 6 6 7 K K K K K K K 7 6 6 q j c n                     ",
"                    z 6 6 6 6 7 K K K K K K K K 7 6 v m n n                     ",
"                  = 3 5 5 6 6 7 K K K K P P K K K x N *.&.Z                     ",
"                  + X , 5 6 7 K K K K P P P P K K 6 v m N n                     ",
"                  + o @ , 6 K K K K K K K P P K K 7 w j c n                     ",
"                  + . X , 7 K K K K K K K K K K K x n A A Z                     ",
"                  + . X , 7 K K K K 7 K K K K K K x N *.&.Z                     ",
"                  + . X , 6 K K K K 7 K K K K K K 6 c k v n                     ",
"                d # X X , 6 K K K F 6 6 6 K K K K 6 c k v n                     ",
"                3 , : X , 6 7 F K 7 5 , , 8 K K K x N *.A Z                     ",
"              * < 9 < X , 8 6 7 K x 5 < : 5 K K 7 w n %.A Z                     ",
"              & < 9 < X , 8 6 7 K K 5 < : 5 K 7 6 6 w j c n                     ",
"              * < , < X , 8 6 6 7 7 5 < : , 7 6 6 7 v m N n                     ",
"              * < 5 < < 5 7 K P L L P 6 , 5 6 6 6 6 N *.&.Z                     ",
"              & < 5 5 5 K R  .@.P.P.P.#.| P 6 6 6 7 c m N n                     ",
"              a 3 2 5 6 P R #.P._.}. XQ.L.R 7 8 6 6 w j c n                     ",
"                s % , 5 5 6 K T R 6.!.z.3.U 7 6 6 6 n %.A Z                     ",
"                  # < , : : 1 w I >.9.>.Q w 7 6 6 6 N *.i.r.                    ",
"                  + X X X > M >.c.x.l.! q 5 5 8 5 6 c z e.u.                    ",
"                  + . . . > M ,.x.B.0.^ > < , , , 2 3 d                         ",
"                  + . . . X 1 v ;.,.;.e @ X X ; X @ a                           ",
"                  + . X X : < 2 v M v w < < : : 0 @ u                           ",
"                  & o X , 5 5 8 w w w 7 5 5 5 9 , # a                           ",
"                    * @ , 6 7 7 7 7 7 7 6 6 5 , , 8 z                           ",
"                    a # , 6 K K 7 F K 7 6 6 5 < , c                             ",
"                    a # 5 7 7 K K K K p 6 6 5 : =                               ",
"                    a # 5 7 7 7 K K K p 6 5 9 , a                               ",
"                    a # 5 7 K K K P K F 5 , , 8 n                               ",
"                    a # 5 7 K K K K K 7 5 < < H (                               ",
"                    a # 5 K K K P P K p 5 < < H (                               ",
"                    u # 5 K K K P P K p 5 : < H (                               ",
"                  u + @ 5 7 K K P P K F 5 : < H (                               ",
"                  + @ , 5 7 K K P P K F 5 : < H ~                               ",
"                  # < 5 7 K K P P P K K 5 < < H Y ~                             ",
"                  % , 6 7 K K K P K K K 7 5 , 4 H Y _                           ",
"                  % , 5 6 7 K K K K K L K 7 5 < 4 J ] ~                         ",
"                  % , 6 7 K 7 K K K P L L K 5 : < J ] ~                         ",
"                  % , 6 K K K K P L L T T H 9 < 4 J ] ~                         ",
"                  % , 5 7 K L T T R T L K 5 , 8 J Y ] ~                         ",
"                  + < , 5 7 K P L L L P K 9 , 8 W ( ` )                         ",
"                  & X : , 5 , , , , 5 K L K 5 , j                               ",
"                    & X < < X X : , 6 T | T K 5 l                               ",
"                      + X X X X , 7 L |  .| E L Z                               ",
"                        + o . X < 5 K L T E R ) i.                              ",
"                          & + & & % = = i c ( p.                                ",
"                                                                                ",
"                                                                                "
};