/* XPM */
static char *e2bdb33dad5040bfbe777e1138RvGIHJ5hslJHP[] = {
/* columns rows colors chars-per-pixel */
"60 60 2 1 ",
"   c #BB8040",
"-- c #B07020",
/* pixels */
"                                                            ",
"                                                            ",
"                                                            ",
"                                                            ",
"                                                            ",
"                                                            ",
"                                                            ",
"                                                            ",
"                                                            ",
"                                                            ",
"                                                            ",
"                                                            ",
"                                                            ",
"                                                            ",
"------------------------------------------------------------",
"                                                            ",
"                                                            ",
"                                                            ",
"                                                            ",
"                                                            ",
"                                                            ",
"                                                            ",
"                                                            ",
"                                                            ",
"                                                            ",
"                                                            ",
"                                                            ",
"                                                            ",
"                                                            ",
"------------------------------------------------------------",
"                                                            ",
"                                                            ",
"                                                            ",
"                                                            ",
"                                                            ",
"                                                            ",
"                                                            ",
"                                                            ",
"                                                            ",
"                                                            ",
"                                                            ",
"                                                            ",
"                                                            ",
"                                                            ",
"------------------------------------------------------------",
"                                                            ",
"                                                            ",
"                                                            ",
"                                                            ",
"                                                            ",
"                                                            ",
"                                                            ",
"                                                            ",
"                                                            ",
"                                                            ",
"                                                            ",
"                                                            ",
"                                                            ",
"                                                            ",
"------------------------------------------------------------"
};